<svg id="Capa_1" enable-background="new 0 0 512.001 512.001" height="512" viewBox="0 0 512.001 512.001" width="512" xmlns="http://www.w3.org/2000/svg"><g><path d="m504.5 497.001h-32.73c6.079-13.485 10.467-27.098 13.065-40.607.782-4.067-1.881-7.999-5.949-8.781-4.068-.778-7.999 1.881-8.781 5.949-2.771 14.408-7.781 29-14.912 43.438h-31.953v-11.548c0-4.143-3.357-7.5-7.5-7.5s-7.5 3.357-7.5 7.5v11.548h-31.953c-11.178-22.628-17.076-45.462-17.542-67.938-.253-12.185 1.099-24.473 4.011-36.774h105.965c2.594 10.956 3.952 21.899 4.033 32.758.031 4.123 3.383 7.444 7.499 7.444h.057c4.143-.031 7.475-3.414 7.444-7.556-.083-11.159-1.383-22.375-3.859-33.585 2.307-1.279 3.87-3.737 3.87-6.562 0-4.143-3.357-7.5-7.5-7.5h-.101c-2.757-8.9-6.249-17.779-10.493-26.604-2.81-5.842-8.584-9.775-15.014-10.376v-11.706c0-9.074-7.307-16.462-16.345-16.616v-274.036c0-20.925-17.023-37.948-37.948-37.948l-281.185-.001c-20.925 0-37.949 17.023-37.949 37.948v15.68h-23.583c-9.386 0-17.021 7.636-17.021 17.021v22.297c-2.265 1.291-3.796 3.723-3.796 6.517s1.53 5.226 3.796 6.517v186.414c-12.983 18.858-20.596 41.686-20.596 66.261v20.669h-4.905c-4.143 0-7.5 3.357-7.5 7.5s3.357 7.5 7.5 7.5h4.905v40.441c0 4.143 3.357 7.5 7.5 7.5s7.5-3.357 7.5-7.5v-40.441h204.286v102.678h-65.03v-41.332c0-7.395-6.017-13.411-13.411-13.411h-47.403c-7.395 0-13.411 6.017-13.411 13.411v41.332h-65.031v-32.249c0-4.143-3.357-7.5-7.5-7.5s-7.5 3.357-7.5 7.5v32.249h-12.53c-4.143 0-7.5 3.357-7.5 7.5s3.357 7.5 7.5 7.5h497c4.143 0 7.5-3.357 7.5-7.5s-3.357-7.501-7.5-7.501zm-389.44-39.743h44.226v39.742h-44.226zm279.94-145.287h-1.548c-9.17 0-16.631 7.461-16.631 16.631v11.706c-6.43.602-12.204 4.535-15.014 10.377-4.255 8.85-7.739 17.72-10.489 26.604h-.104c-4.143 0-7.5 3.357-7.5 7.5 0 2.828 1.566 5.289 3.878 6.566-1.122 5.103-1.995 10.209-2.622 15.317h-28.82c-.008-26.55-.002-204.911 0-260.693 2.265-1.291 3.795-3.723 3.795-6.516s-1.53-5.226-3.795-6.516v-22.297c0-9.386-7.637-17.021-17.022-17.021h-22.363v-19.79c0-7.457 6.066-13.524 13.523-13.524h91.188c7.457 0 13.524 6.067 13.524 13.524zm-157.623-165.008h63.771v53.413h-63.771zm0 68.413h63.771v53.722h-63.771zm61.749-106.748c1.115 0 2.022.907 2.022 2.021v21.313h-63.771v-21.313c0-1.114.907-2.021 2.021-2.021zm-76.749 90.349h-87.721v-10.287h87.721zm-102.981-67.308h-16.892c-4.143 0-7.5 3.357-7.5 7.5s3.357 7.5 7.5 7.5h16.892v53.722h-63.771v-53.722h16.892c4.143 0 7.5-3.357 7.5-7.5s-3.357-7.5-7.5-7.5h-16.892v-24.706h63.771zm0 83.722v27.468c-24.595 3.76-46.691 15.202-63.771 31.785v-59.253zm15-1.414h87.851c.001 1.52-.032 68.667.131 64.375-21.375-22.667-51.664-36.84-85.205-36.84-.928 0-1.853.014-2.776.035v-27.57zm102.981 70.121h63.771v69.343h-46.955c-.89-20.209-6.918-39.106-16.816-55.407zm21.843 110.225c4.143 0 7.5-3.357 7.5-7.5s-3.357-7.5-7.5-7.5h-4.904v-10.883h46.833v38.231h-46.833v-12.349h4.904zm-4.904 27.349h89.524c-.098 3.497-.08 6.994.055 10.49h-89.578v-10.49zm90.864 25.49c2.217 16.647 7.059 33.275 14.532 49.839h-43.563v-49.839zm110.974-89.977c3.213 6.683 5.953 13.39 8.239 20.104h-97.301c2.286-6.713 5.019-13.418 8.233-20.103.575-1.195 1.836-1.968 3.212-1.968h74.406c1.376 0 2.636.772 3.211 1.967zm-16.496-28.583v11.616h-47.837v-11.616c0-.899.731-1.631 1.631-1.631h44.576c.898 0 1.63.731 1.63 1.631zm-343.428-290.654c0-12.653 10.295-22.948 22.949-22.948l281.186.001c12.653 0 22.948 10.295 22.948 22.948v274.021h-13.313v-238.131c0-15.729-12.796-28.524-28.524-28.524h-91.188c-15.728 0-28.523 12.796-28.523 28.524v19.789h-22.364c-9.386 0-17.021 7.636-17.021 17.021v22.297c-2.265 1.291-3.796 3.723-3.796 6.517s1.53 5.226 3.796 6.517v27.711h-87.721c-.142-52.934.216 24.654-.261-67.711 2.265-1.291 3.796-3.723 3.796-6.517s-1.53-5.226-3.796-6.517v-22.297c0-9.386-7.636-17.021-17.021-17.021h-21.147zm-38.583 30.68h59.728c1.114 0 2.021.907 2.021 2.021v21.313h-63.771v-21.313c0-1.114.908-2.021 2.022-2.021zm-22.617 310.695v-20.669c0-56.321 45.821-102.143 102.144-102.143 56.321 0 102.143 45.821 102.143 102.143v20.669zm219.286 67.839h46.833v49.839h-46.833z"/><path d="m137.172 293.498c-7.103 0-13.733 5.126-18.669 14.435-3.562 6.716-5.862 14.965-5.862 21.017 0 13.527 11.005 24.532 24.531 24.532 13.527 0 24.532-11.005 24.532-24.532 0-6.052-2.301-14.301-5.862-21.017-4.936-9.309-11.566-14.435-18.67-14.435zm0 44.983c-5.256 0-9.531-4.276-9.531-9.532 0-8.145 6.562-19.987 9.499-20.453 3.002.465 9.564 12.307 9.564 20.453.001 5.256-4.276 9.532-9.532 9.532z"/></g></svg>