<svg width="25" height="25" viewBox="0 0 25 25" fill="none" xmlns="http://www.w3.org/2000/svg">
<g clip-path="url(#clip0)">
<path d="M1.61382 12.2365L1.59549 18.4219H1.98799C2.08007 18.4219 2.15466 18.4815 2.15466 18.5552V19.2705C2.15466 19.3442 2.08007 19.4039 1.98799 19.4039H1.06632C0.97424 19.4039 0.899656 19.3442 0.899656 19.2705V18.5552C0.899656 18.4815 0.97424 18.4219 1.06632 18.4219H1.38757L1.40591 12.2349L0.60924 12.2289C0.52924 12.2319 0.455907 12.1879 0.43924 12.1232C0.127157 10.9332 0.46924 9.50421 1.22632 8.23655C1.98216 6.97088 3.15424 5.86155 4.50507 5.30655C4.57382 5.27521 4.66341 5.28688 4.71549 5.33788L5.83091 6.42121L6.45091 6.65821C6.53382 6.68988 6.56924 6.76921 6.52966 6.83588L5.27091 8.94388L10.7359 11.0879C10.8184 11.1202 10.8522 11.1995 10.8122 11.2655C10.7717 11.3315 10.6726 11.3585 10.5901 11.3265L5.12799 9.18388L4.64924 9.98588L10.6613 12.2415C10.7442 12.2725 10.7801 12.3515 10.7413 12.4182C10.7026 12.4845 10.6038 12.5132 10.5205 12.4822L4.50591 10.2255L3.18382 12.4399C3.14424 12.5062 3.04507 12.5345 2.96174 12.5029L2.30924 12.2535C2.30091 12.2505 2.29299 12.2469 2.28591 12.2425L1.61341 12.2375L1.61382 12.2365ZM17.0751 3.84855L16.7888 3.71221L16.9592 3.48321L17.2455 3.61955L17.0751 3.84855ZM14.0042 7.97221L13.718 7.83588L13.8884 7.60688L14.1747 7.74321L14.0042 7.97221ZM14.3455 7.51388L14.0592 7.37755L14.2297 7.14855L14.5159 7.28488L14.3455 7.51388ZM14.6867 7.05555L14.4005 6.91921L14.5709 6.69021L14.8572 6.82655L14.6867 7.05555ZM15.028 6.59721L14.7417 6.46088L14.9122 6.23188L15.1984 6.36821L15.028 6.59721ZM15.3692 6.13888L15.083 6.00255L15.2534 5.77355L15.5397 5.90988L15.3692 6.13888ZM15.7105 5.68055L15.4242 5.54421L15.5947 5.31521L15.8809 5.45155L15.7105 5.68055ZM16.0517 5.22221L15.7655 5.08588L15.9359 4.85688L16.2222 4.99321L16.0517 5.22221ZM16.393 4.76388L16.1067 4.62755L16.2772 4.39855L16.5634 4.53488L16.393 4.76388ZM16.7342 4.30555L16.448 4.16921L16.6184 3.94021L16.9047 4.07655L16.7342 4.30555ZM17.8188 7.31255L17.6563 7.07988L17.9472 6.94988L18.1097 7.18255L17.8188 7.31255ZM14.9097 8.61421L14.7472 8.38155L15.038 8.25155L15.2005 8.48421L14.9097 8.61421ZM15.4913 8.35388L15.3288 8.12121L15.6197 7.99121L15.7822 8.22388L15.4913 8.35388ZM16.073 8.09355L15.9105 7.86088L16.2013 7.73088L16.3638 7.96355L16.073 8.09355ZM16.6547 7.83321L16.4922 7.60055L16.783 7.47055L16.9455 7.70321L16.6547 7.83321ZM17.2363 7.57288L17.0738 7.34021L17.3647 7.21021L17.5272 7.44288L17.2363 7.57288ZM17.1226 9.62388L17.1272 9.35721L17.4605 9.36088L17.4559 9.62755L17.1226 9.62388ZM15.1226 9.60188L15.1272 9.33521L15.4605 9.33888L15.4559 9.60555L15.1226 9.60188ZM15.7892 9.60921L15.7938 9.34255L16.1272 9.34621L16.1226 9.61288L15.7892 9.60921ZM16.4559 9.61655L16.4605 9.34988L16.7938 9.35355L16.7892 9.62021L16.4559 9.61655ZM8.55382 9.29288L8.55299 9.55955L8.21966 9.55888L8.22049 9.29221L8.55382 9.29288ZM10.5538 9.29688L10.553 9.56355L10.2197 9.56288L10.2205 9.29621L10.5538 9.29688ZM9.88715 9.29555L9.88632 9.56221L9.55299 9.56155L9.55382 9.29488L9.88715 9.29555ZM9.22049 9.29421L9.21966 9.56088L8.88632 9.56021L8.88715 9.29355L9.22049 9.29421ZM7.90966 7.00755L7.73924 7.23655L7.45299 7.10021L7.62341 6.87121L7.90966 7.00755ZM10.7734 8.37255L10.603 8.60155L10.3167 8.46521L10.4872 8.23621L10.7734 8.37255ZM10.2005 8.09955L10.0301 8.32855L9.74382 8.19221L9.91424 7.96321L10.2005 8.09955ZM9.62757 7.82655L9.45716 8.05555L9.17091 7.91921L9.34132 7.69021L9.62757 7.82655ZM9.05466 7.55355L8.88424 7.78255L8.59799 7.64621L8.7684 7.41721L9.05466 7.55355ZM8.48174 7.28055L8.31132 7.50955L8.02507 7.37321L8.19549 7.14421L8.48174 7.28055ZM8.83257 3.62921L8.54174 3.75921L8.37924 3.52655L8.67007 3.39655L8.83257 3.62921ZM11.7613 7.81855L11.4705 7.94855L11.308 7.71588L11.5988 7.58588L11.7613 7.81855ZM11.4359 7.35321L11.1451 7.48321L10.9826 7.25055L11.2734 7.12055L11.4359 7.35321ZM11.1105 6.88788L10.8197 7.01788L10.6572 6.78521L10.948 6.65521L11.1105 6.88788ZM10.7851 6.42255L10.4942 6.55255L10.3317 6.31988L10.6226 6.18988L10.7851 6.42255ZM10.4597 5.95721L10.1688 6.08721L10.0063 5.85455L10.2972 5.72455L10.4597 5.95721ZM10.1342 5.49188L9.8434 5.62188L9.6809 5.38921L9.97174 5.25921L10.1342 5.49188ZM9.80882 5.02655L9.51799 5.15655L9.35549 4.92388L9.64632 4.79388L9.80882 5.02655ZM9.48341 4.56121L9.19257 4.69121L9.03007 4.45855L9.3209 4.32855L9.48341 4.56121ZM9.15799 4.09588L8.86716 4.22588L8.70465 3.99321L8.99549 3.86321L9.15799 4.09588ZM12.9897 2.85588L12.6563 2.85221L12.6609 2.58555L12.9942 2.58921L12.9897 2.85588ZM12.9076 7.65555L12.5742 7.65188L12.5788 7.38521L12.9122 7.38888L12.9076 7.65555ZM12.9167 7.12221L12.5834 7.11855L12.588 6.85188L12.9213 6.85555L12.9167 7.12221ZM12.9259 6.58888L12.5926 6.58521L12.5972 6.31855L12.9305 6.32221L12.9259 6.58888ZM12.9351 6.05555L12.6017 6.05188L12.6063 5.78521L12.9397 5.78888L12.9351 6.05555ZM12.9442 5.52221L12.6109 5.51855L12.6155 5.25188L12.9488 5.25555L12.9442 5.52221ZM12.9534 4.98888L12.6201 4.98521L12.6247 4.71855L12.958 4.72221L12.9534 4.98888ZM12.9626 4.45555L12.6292 4.45188L12.6338 4.18521L12.9672 4.18888L12.9626 4.45555ZM12.9717 3.92221L12.6384 3.91855L12.643 3.65188L12.9763 3.65555L12.9717 3.92221ZM12.9809 3.38888L12.6476 3.38521L12.6522 3.11855L12.9855 3.12221L12.9809 3.38888ZM14.0622 13.7489L16.2976 19.1839C16.3263 19.2539 16.2788 19.3292 16.1913 19.3522C16.1038 19.3752 16.0097 19.3372 15.9809 19.2672L13.7751 13.9035H11.4838L9.27799 19.2672C9.24924 19.3372 9.15507 19.3752 9.06757 19.3522C8.98007 19.3292 8.93257 19.2539 8.96132 19.1839L11.2051 13.7285C11.208 13.7219 11.2113 13.7155 11.2151 13.7095V11.2672H11.2159V11.2632C11.2176 10.9672 11.4009 10.7262 11.6742 10.5599C11.9372 10.3999 12.2855 10.3105 12.6317 10.3105H12.6455V10.3099C12.9913 10.3099 13.3397 10.3995 13.603 10.5599C13.8767 10.7262 14.0597 10.9672 14.0613 11.2632V11.2672H14.0622V13.7492V13.7489ZM13.2467 14.8685C13.218 14.7985 13.2655 14.7232 13.353 14.7002C13.4405 14.6772 13.5347 14.7152 13.5634 14.7852L14.9376 18.1269C14.9663 18.1969 14.9188 18.2722 14.8313 18.2952C14.7438 18.3182 14.6497 18.2802 14.6209 18.2102L13.2467 14.8685ZM11.6955 14.7852C11.7242 14.7152 11.8184 14.6772 11.9059 14.7002C11.9934 14.7232 12.0409 14.7985 12.0122 14.8685L10.6376 18.2102C10.6088 18.2802 10.5147 18.3182 10.4272 18.2952C10.3397 18.2722 10.2922 18.1969 10.3209 18.1269L11.6955 14.7852ZM12.6455 10.5755H12.6317C12.3559 10.5755 12.0805 10.6455 11.8747 10.7709C11.6797 10.8895 11.5488 11.0589 11.5476 11.2639V11.2669H11.5484V13.6365H13.7288V11.2669H13.7297V11.2639C13.7284 11.0589 13.5976 10.8895 13.4026 10.7709C13.1972 10.6462 12.9222 10.5762 12.6455 10.5762V10.5755ZM3.41174 7.12288L3.41049 7.12421C3.36257 7.20555 3.36007 7.29488 3.39466 7.37355C3.42966 7.45288 3.50216 7.52121 3.60424 7.56021V7.55988C3.70632 7.59888 3.81882 7.60121 3.91757 7.57321C4.01632 7.54521 4.10174 7.48721 4.15049 7.40555C4.19924 7.32388 4.20216 7.23388 4.16716 7.15488C4.13216 7.07555 4.05966 7.00721 3.95757 6.96821V6.96855C3.85549 6.92955 3.74299 6.92721 3.64424 6.95521C3.54549 6.98321 3.46007 7.04121 3.41132 7.12288H3.41174ZM3.22382 7.05121C3.29716 6.92821 3.42632 6.84055 3.57549 6.79821C3.72466 6.75621 3.89382 6.75921 4.04757 6.81821L4.04924 6.81921C4.20257 6.87821 4.31132 6.98088 4.36382 7.09955C4.41632 7.21888 4.41257 7.35421 4.33882 7.47721C4.26549 7.60021 4.13632 7.68788 3.98716 7.73021C3.83799 7.77221 3.66882 7.76921 3.51507 7.71021L3.51341 7.70921C3.36007 7.65021 3.25132 7.54755 3.19882 7.42888C3.14632 7.30988 3.15049 7.17455 3.22382 7.05155H3.22341L3.22382 7.05121ZM1.41049 10.4739C1.36174 10.5555 1.35924 10.6452 1.39424 10.7245C1.42924 10.8039 1.50174 10.8722 1.60382 10.9112V10.9109C1.70591 10.9499 1.81841 10.9522 1.91716 10.9242C2.01091 10.8975 2.09299 10.8439 2.14257 10.7689L2.15007 10.7565C2.19882 10.6749 2.20174 10.5849 2.16674 10.5059C2.13174 10.4269 2.05924 10.3585 1.95716 10.3195V10.3192H1.95674C1.85466 10.2802 1.74257 10.2782 1.64341 10.3062C1.54424 10.3342 1.45882 10.3922 1.41007 10.4739H1.41049ZM1.22341 10.4022C1.29716 10.2789 1.42591 10.1912 1.57466 10.1492C1.71591 10.1092 1.87549 10.1102 2.02341 10.1609H2.02549L2.04674 10.1689C2.20049 10.2275 2.31007 10.3309 2.36299 10.4502C2.41299 10.5639 2.41174 10.6915 2.34841 10.8099V10.8102L2.34716 10.8125C2.34424 10.8175 2.34132 10.8229 2.33841 10.8279H2.33799C2.26424 10.9512 2.13549 11.0389 1.98674 11.0809C1.83757 11.1229 1.66841 11.1199 1.51466 11.0609L1.51299 11.0599C1.35966 11.0009 1.25091 10.8982 1.19841 10.7795C1.14591 10.6605 1.15007 10.5252 1.22382 10.4019L1.22341 10.4022ZM5.53007 6.54688L4.54424 5.58955C3.30799 6.13121 2.23216 7.16855 1.52632 8.35055C0.820906 9.53221 0.488407 10.8539 0.738407 11.9639L2.28841 11.9755L5.52966 6.54721L5.53007 6.54688ZM5.80424 6.70588L2.60216 12.0689L2.95382 12.2032L4.26299 10.0109C4.26549 10.0039 4.26841 9.99688 4.27257 9.99021L4.27299 9.98921L4.27257 9.98888L4.89591 8.94521C4.90049 8.93721 4.90632 8.92988 4.91257 8.92321L6.15632 6.84021L5.80466 6.70588H5.80424ZM14.8784 12.9075C14.7955 12.8759 14.7601 12.7965 14.7997 12.7299C14.8392 12.6635 14.9384 12.6352 15.0217 12.6669L18.0447 13.8219C18.048 13.8232 18.0563 13.8269 18.0701 13.8329C18.1517 13.8689 18.3201 13.9675 18.4213 14.1329C18.5226 14.2979 18.5601 14.5265 18.3855 14.8189C18.3738 14.8385 18.3584 14.8619 18.3392 14.8895L18.338 14.8915C18.228 15.0432 18.0659 15.1349 17.8792 15.1702C17.6909 15.2062 17.4801 15.1832 17.278 15.1059L14.5434 14.0609C14.4605 14.0292 14.4251 13.9499 14.4647 13.8832C14.5042 13.8169 14.6034 13.7885 14.6867 13.8202L17.4213 14.8652C17.5551 14.9162 17.6884 14.9325 17.8026 14.9109C17.9026 14.8919 17.9901 14.8419 18.0505 14.7582C18.0609 14.7432 18.0722 14.7249 18.0847 14.7042C18.2059 14.5012 18.1863 14.3525 18.123 14.2495C18.0601 14.1472 17.958 14.0869 17.9084 14.0649C17.9067 14.0642 17.9072 14.0645 17.9009 14.0622L14.878 12.9072L14.8784 12.9075ZM21.203 0.678215C21.203 0.632215 21.2497 0.595215 21.3067 0.595215C21.3642 0.595215 21.4105 0.632548 21.4105 0.678215L21.4176 2.78488H21.5484C21.6405 2.78488 21.7151 2.84455 21.7151 2.91821V3.29655H22.0751C22.1301 3.29655 22.1788 3.31788 22.2092 3.35055L22.8009 3.91755L23.3705 3.91888C23.4622 3.91888 23.5363 3.97821 23.5363 4.05155V4.05221C23.5363 4.09355 23.5359 4.22388 23.5359 4.43421C23.5359 4.64355 23.5359 4.77355 23.5363 4.81455C23.5367 4.88788 23.4626 4.94755 23.3709 4.94788H23.3701L22.738 4.94821L23.0126 7.65721H23.4722C23.5642 7.65721 23.6388 7.71688 23.6388 7.79055C23.6388 7.96155 23.6401 8.06988 23.6409 8.17821C23.6426 8.35321 23.6442 8.52821 23.6442 8.56688C23.6442 8.64055 23.5697 8.70021 23.4776 8.70021H23.1147L23.3863 11.4795H23.943C24.0351 11.4795 24.1097 11.5392 24.1097 11.6129C24.1097 11.6165 24.1097 11.6202 24.1092 11.6239L24.1147 12.3885C24.1151 12.4619 24.0409 12.5215 23.9492 12.5219H23.9484V12.5225H23.4884L23.8567 16.2905H24.508C24.6001 16.2905 24.6747 16.3502 24.6747 16.4239V17.1999C24.6747 17.2735 24.6001 17.3332 24.508 17.3332H23.9588L24.1438 19.2229C24.1505 19.2962 24.0817 19.3602 23.9901 19.3655C23.8984 19.3709 23.8184 19.3159 23.8117 19.2425L23.8005 19.1285L21.3409 18.2502L18.6967 19.1929L18.6913 19.2465C18.6847 19.3199 18.6047 19.3749 18.513 19.3695C18.4213 19.3642 18.3526 19.3002 18.3592 19.2269L18.5447 17.3329H18.048C17.9559 17.3329 17.8813 17.2732 17.8813 17.1995V16.4235C17.8813 16.3499 17.9559 16.2902 18.048 16.2902H18.6467L19.0151 12.5222H18.5184C18.4263 12.5222 18.3517 12.4625 18.3517 12.3889V11.6129C18.3517 11.5392 18.4263 11.4795 18.5184 11.4795H19.1167L19.3884 8.70021H18.968C18.8759 8.70021 18.8013 8.64055 18.8013 8.56688V7.79088C18.8013 7.71721 18.8759 7.65755 18.968 7.65755H19.4905L19.7555 4.95021L19.2092 4.95055C19.1176 4.95055 19.0434 4.89121 19.0434 4.81788H19.0426V4.04188C19.0426 3.96821 19.1172 3.90855 19.2092 3.90855C19.2142 3.90855 19.2192 3.90888 19.2247 3.90921L19.7951 3.91055L20.3851 3.34521C20.418 3.31388 20.4651 3.29755 20.5126 3.29755V3.29721H20.8855V2.91888C20.8855 2.84521 20.9601 2.78555 21.0522 2.78555H21.2101L21.203 0.678882V0.678215ZM21.7147 3.56321V3.91455L22.3659 3.91621L21.9972 3.56288H21.7147V3.56321ZM20.8851 3.91255V3.56321H20.5897L20.2267 3.91088L20.8847 3.91255H20.8851ZM21.3813 3.05155H21.2184V3.86088H21.3813V3.05155ZM22.5451 7.65688L21.2372 6.28988L19.9292 7.65688H22.5451ZM21.1326 6.18021L20.0776 5.07721L19.8372 7.53421L21.1326 6.18021ZM20.1642 4.94921L21.2372 6.07088L22.3113 4.94821L20.1642 4.94921ZM21.3422 6.18021L22.6697 7.56788L22.4155 5.05821L21.3422 6.18021ZM22.9317 11.4789L21.2647 10.0879L19.5976 11.4789H22.9322H22.9317ZM21.1492 9.99155L19.7138 8.79388L19.4588 11.4019L21.1492 9.99155ZM19.8309 8.69955L21.2642 9.89555L22.6976 8.69955H19.8305H19.8309ZM21.3797 9.99155L23.0434 11.3795L22.7926 8.81288L21.3801 9.99155H21.3797ZM23.4451 16.2895L21.2713 14.3362L19.0976 16.2895H23.4447H23.4451ZM21.1601 14.2359L19.3417 12.6019L18.9913 16.1849L21.1601 14.2359ZM19.4751 12.5212L21.2717 14.1355L23.0684 12.5212H19.4755H19.4751ZM21.383 14.2359L23.5097 16.1469L23.1659 12.6335L21.383 14.2359ZM18.7122 19.0415L21.138 18.1765L18.8759 17.3685L18.7122 19.0412V19.0415ZM21.3417 18.1039L23.5063 17.3322H19.1813L21.3422 18.1039H21.3417ZM23.6351 17.4315L21.5455 18.1765L23.7863 18.9769L23.6351 17.4315ZM19.1359 8.43255H19.5447V7.92321H19.1359V8.43255ZM19.878 8.43255H20.5388V7.92321H19.878V8.43255ZM20.8722 8.43255H21.533V7.92321H20.8722V8.43255ZM21.8663 8.43255H22.5272V7.92321H21.8663V8.43255ZM22.8605 8.43255H23.3113C23.3109 8.33255 23.3101 8.25555 23.3097 8.17821L23.3072 7.92288H22.8605V8.43221V8.43255ZM18.6863 12.2545H19.0951V11.7452H18.6863V12.2545ZM19.4284 12.2545H20.0892V11.7452H19.4284V12.2545ZM20.4226 12.2545H21.0834V11.7452H20.4226V12.2545ZM21.4167 12.2545H22.0776V11.7452H21.4167V12.2545ZM22.4109 12.2545H23.0717V11.7452H22.4109V12.2545ZM23.4051 12.2545H23.783L23.7792 11.7452H23.4051V12.2545ZM22.8667 4.68188H23.2047C23.2038 4.55421 23.2038 4.47088 23.2038 4.43388C23.2038 4.39688 23.2042 4.31321 23.2047 4.18388L22.8667 4.18288V4.68221V4.68188ZM19.3772 4.68355L19.7388 4.68321V4.17421L19.3772 4.17321V4.68321V4.68355ZM20.6705 4.67421V4.17688L20.0726 4.17521V4.67421H20.6705ZM21.6017 4.67421V4.17921L21.0038 4.17755V4.67388H21.6017V4.67421ZM22.533 4.67421V4.18188L21.9351 4.18021V4.67421H22.533ZM24.3422 16.5562H23.9276V17.0655H24.3422V16.5562ZM23.5942 16.5562H22.9334V17.0655H23.5942V16.5562ZM22.6001 16.5562H21.9392V17.0655H22.6001V16.5562ZM21.6059 16.5562H20.9451V17.0655H21.6059V16.5562ZM20.6117 16.5562H19.9509V17.0655H20.6117V16.5562ZM19.6176 16.5562H18.9567V17.0655H19.6176V16.5562ZM18.6234 16.5562H18.2147V17.0655H18.6234V16.5562ZM1.82049 18.6872H1.23216V19.1359H1.82049V18.6872Z" fill="white"/>
<path d="M0.00414391 20.0018C0.00410701 20.0023 0.00391821 20.0028 0.0035775 20.003C0.00323895 20.0033 0.0027919 20.0035 0.00223634 20.0035C0.0016287 20.0035 0.00115018 20.0033 0.000800786 20.0029C0.000453562 20.0025 0.00027995 20.0019 0.00027995 20.0012V20.0009C0.00027995 20.0004 0.000360245 20 0.000520837 19.9997C0.000681428 19.9993 0.000910379 19.9991 0.00120769 19.9989C0.00150717 19.9987 0.00185439 19.9986 0.00224936 19.9986C0.00279624 19.9986 0.00323678 19.9988 0.00357099 19.9991C0.00390519 19.9993 0.00409833 19.9998 0.00415042 20.0003H0.00317385C0.00314998 20 0.00306425 19.9998 0.00291668 19.9996C0.00277128 19.9995 0.00254884 19.9994 0.00224936 19.9994C0.00192384 19.9994 0.0016797 19.9995 0.00151694 19.9998C0.00135635 20 0.00127388 20.0004 0.00126954 20.0008V20.0012C0.00126954 20.0017 0.00134658 20.0021 0.00150066 20.0023C0.00165691 20.0026 0.00190214 20.0027 0.00223634 20.0027C0.00253799 20.0027 0.0027626 20.0026 0.00291017 20.0025C0.00305991 20.0023 0.00314564 20.0021 0.00316734 20.0018H0.00414391ZM0.00670251 20.0008C0.00657448 20.0008 0.00646163 20.0008 0.00636397 20.0008C0.00600807 20.0008 0.00577477 20.0009 0.0056641 20.0011V20.0034H0.00472334V19.9999H0.00561201L0.00563806 20.0003C0.00582686 20 0.00608836 19.9998 0.00642257 19.9998C0.00652673 19.9998 0.00662439 19.9998 0.00671554 19.9999L0.00670251 20.0008ZM0.00871425 20.0035C0.00819775 20.0035 0.00777674 20.0033 0.00745122 20.003C0.00712786 20.0027 0.00696619 20.0023 0.00696619 20.0017V20.0017C0.00696619 20.0013 0.00703455 20.001 0.00717127 20.0007C0.00730799 20.0004 0.00750113 20.0002 0.0077507 20.0001C0.00800244 19.9999 0.0082889 19.9998 0.00861008 19.9998C0.00909185 19.9998 0.00947054 20 0.00974615 20.0003C0.0100239 20.0006 0.0101628 20.001 0.0101628 20.0016V20.002H0.00791997C0.00795035 20.0022 0.0080415 20.0024 0.00819341 20.0025C0.00834749 20.0027 0.00854172 20.0027 0.0087761 20.0027C0.00913851 20.0027 0.00942172 20.0026 0.00962571 20.0023L0.010088 20.0028C0.00994689 20.003 0.00975592 20.0032 0.00951503 20.0033C0.00927415 20.0034 0.00900722 20.0035 0.00871425 20.0035ZM0.00860682 20.0006C0.00842019 20.0006 0.00826828 20.0007 0.00815109 20.0008C0.00803607 20.0009 0.00796229 20.0011 0.00792974 20.0013H0.00923834V20.0012C0.009234 20.001 0.00917757 20.0009 0.00906907 20.0008C0.00896056 20.0006 0.00880648 20.0006 0.00860682 20.0006ZM0.012741 20.0034C0.0126976 20.0033 0.0126661 20.0032 0.0126466 20.0031C0.0124187 20.0034 0.0121225 20.0035 0.0117579 20.0035C0.0114128 20.0035 0.0111264 20.0034 0.0108985 20.0032C0.0106728 20.003 0.01056 20.0027 0.01056 20.0024C0.01056 20.0021 0.0106978 20.0018 0.0109734 20.0016C0.0112512 20.0014 0.0116515 20.0013 0.0121746 20.0013H0.0126075V20.0011C0.0126075 20.0009 0.0125652 20.0008 0.0124805 20.0007C0.0123981 20.0006 0.0122668 20.0005 0.0120867 20.0005C0.0119282 20.0005 0.0118035 20.0006 0.0117123 20.0006C0.0116233 20.0007 0.0115788 20.0008 0.0115788 20.001H0.0106381C0.0106381 20.0007 0.010701 20.0006 0.0108269 20.0004C0.0109528 20.0002 0.0111307 20.0001 0.0113607 20C0.0115908 19.9999 0.011849 19.9998 0.0121355 19.9998C0.0125695 19.9998 0.0129135 19.9999 0.0131674 20.0002C0.0134235 20.0004 0.0135515 20.0007 0.0135515 20.0011V20.0026C0.0135537 20.0029 0.0136003 20.0032 0.0136915 20.0034V20.0034H0.012741ZM0.011963 20.0028C0.0121019 20.0028 0.0122299 20.0027 0.0123471 20.0027C0.0124643 20.0026 0.0125511 20.0025 0.0126075 20.0024V20.0018H0.0122559C0.011785 20.0018 0.0115344 20.002 0.011504 20.0023L0.0115007 20.0024C0.0115007 20.0025 0.011542 20.0026 0.0116244 20.0026C0.0117069 20.0027 0.0118197 20.0028 0.011963 20.0028ZM0.0154005 19.999V19.9999H0.0160027V20.0006H0.0154005V20.0023C0.0154005 20.0025 0.0154254 20.0026 0.0154754 20.0026C0.0155253 20.0027 0.0156208 20.0027 0.0157618 20.0027C0.015866 20.0027 0.0159582 20.0027 0.0160385 20.0027V20.0034C0.015854 20.0035 0.0156642 20.0035 0.0154688 20.0035C0.0148091 20.0035 0.0144727 20.0031 0.0144597 20.0025V20.0006H0.0139454V19.9999H0.0144597V19.999H0.0154005ZM0.0181479 20.0035C0.0176314 20.0035 0.0172104 20.0033 0.0168849 20.003C0.0165615 20.0027 0.0163998 20.0023 0.0163998 20.0017V20.0017C0.0163998 20.0013 0.0164682 20.001 0.0166049 20.0007C0.0167416 20.0004 0.0169348 20.0002 0.0171843 20.0001C0.0174361 19.9999 0.0177225 19.9998 0.0180437 19.9998C0.0185255 19.9998 0.0189042 20 0.0191798 20.0003C0.0194576 20.0006 0.0195965 20.001 0.0195965 20.0016V20.002H0.0173536C0.017384 20.0022 0.0174752 20.0024 0.0176271 20.0025C0.0177811 20.0027 0.0179754 20.0027 0.0182097 20.0027C0.0185722 20.0027 0.0188554 20.0026 0.0190594 20.0023L0.0195216 20.0028C0.0193805 20.003 0.0191896 20.0032 0.0189487 20.0033C0.0187078 20.0034 0.0184409 20.0035 0.0181479 20.0035ZM0.0180405 20.0006C0.0178538 20.0006 0.0177019 20.0007 0.0175847 20.0008C0.0174697 20.0009 0.0173959 20.0011 0.0173634 20.0013H0.018672V20.0012C0.0186676 20.001 0.0186112 20.0009 0.0185027 20.0008C0.0183942 20.0006 0.0182401 20.0006 0.0180405 20.0006ZM0.0199871 20.0016C0.0199871 20.0011 0.0201097 20.0006 0.0203549 20.0003C0.0206023 20 0.0209398 19.9998 0.0213673 19.9998C0.0217102 19.9998 0.0219934 20 0.0222169 20.0002V19.9984H0.0231609V20.0034H0.0223113L0.0222658 20.003C0.0220314 20.0033 0.0217297 20.0035 0.0213608 20.0035C0.0209463 20.0035 0.0206132 20.0033 0.0203615 20.003C0.0201119 20.0027 0.0199871 20.0022 0.0199871 20.0016ZM0.0209279 20.0017C0.0209279 20.002 0.0209854 20.0023 0.0211004 20.0025C0.0212154 20.0026 0.0213825 20.0027 0.0216017 20.0027C0.0218925 20.0027 0.0220976 20.0026 0.0222169 20.0024V20.001C0.0220997 20.0007 0.0218968 20.0006 0.0216082 20.0006C0.0211546 20.0006 0.0209279 20.001 0.0209279 20.0017ZM0.0287241 20.0017C0.0287241 20.0023 0.0286037 20.0027 0.0283628 20.003C0.0281219 20.0033 0.0277855 20.0035 0.0273537 20.0035C0.0269717 20.0035 0.0266668 20.0033 0.026439 20.003L0.0263966 20.0034H0.0255503V19.9984H0.026491V20.0002C0.0267081 20 0.0269934 19.9998 0.0273472 19.9998C0.0277769 19.9998 0.0281132 20 0.0283563 20.0003C0.0286015 20.0006 0.0287241 20.0011 0.0287241 20.0016V20.0017ZM0.0277834 20.0016C0.0277834 20.0013 0.0277269 20.001 0.0276141 20.0008C0.0275013 20.0007 0.0273331 20.0006 0.0271095 20.0006C0.0268101 20.0006 0.0266039 20.0007 0.026491 20.001V20.0024C0.0266061 20.0026 0.0268144 20.0027 0.0271161 20.0027C0.0274199 20.0027 0.0276195 20.0026 0.027715 20.0023C0.0277606 20.0021 0.0277834 20.0019 0.0277834 20.0016ZM0.0305829 20.0021L0.0312339 19.9999H0.032243L0.030827 20.004L0.0307489 20.0042C0.0305384 20.0046 0.0301912 20.0048 0.0297072 20.0048C0.0295705 20.0048 0.0294316 20.0048 0.0292905 20.0048V20.0041L0.0294338 20.0041C0.0296117 20.0041 0.0297441 20.004 0.0298309 20.004C0.0299199 20.0039 0.0299893 20.0038 0.0300392 20.0037L0.0301499 20.0034L0.0289162 19.9999H0.0299286L0.0305829 20.0021ZM0.00431643 20.0012C0.00431643 20.0016 0.00423397 20.002 0.00406904 20.0024C0.0039041 20.0027 0.00366756 20.003 0.0033594 20.0032C0.0030534 20.0034 0.00270184 20.0035 0.0023047 20.0035C0.0019119 20.0035 0.00156142 20.0034 0.00125326 20.0032C0.000945101 20.003 0.000706385 20.0027 0.000537113 20.0024C0.000367841 20.002 0.00028212 20.0016 0.00027995 20.0012V20.0009C0.00027995 20.0005 0.0003635 20.0001 0.000530602 19.9997C0.000699874 19.9994 0.000937506 19.9991 0.0012435 19.9989C0.00155166 19.9987 0.00190322 19.9986 0.00229819 19.9986C0.00269316 19.9986 0.00304364 19.9987 0.00334963 19.9989C0.00365779 19.9991 0.00389542 19.9994 0.00406252 19.9997C0.0042318 20.0001 0.00431643 20.0005 0.00431643 20.0009V20.0012ZM0.00332684 20.0009C0.00332684 20.0004 0.00323787 20.0001 0.00305991 19.9998C0.00288196 19.9995 0.00262805 19.9994 0.00229819 19.9994C0.0019705 19.9994 0.00171768 19.9995 0.00153972 19.9998C0.00136177 20.0001 0.00127171 20.0004 0.00126954 20.0009V20.0012C0.00126954 20.0016 0.00135852 20.002 0.00153647 20.0023C0.00171442 20.0025 0.0019705 20.0027 0.0023047 20.0027C0.00263239 20.0027 0.00288413 20.0026 0.00305991 20.0023C0.0032357 20.002 0.00332467 20.0017 0.00332684 20.0012V20.0009ZM0.00595707 20.0034H0.00501305V19.9984H0.00595707V20.0034ZM0.00835617 20.0035C0.00783967 20.0035 0.00741867 20.0033 0.00709314 20.003C0.00676979 20.0027 0.00660811 20.0023 0.00660811 20.0017V20.0017C0.00660811 20.0013 0.00667647 20.001 0.00681319 20.0007C0.00694991 20.0004 0.00714306 20.0002 0.00739262 20.0001C0.00764436 19.9999 0.00793082 19.9998 0.008252 19.9998C0.00873378 19.9998 0.00911247 20 0.00938808 20.0003C0.00966586 20.0006 0.00980475 20.001 0.00980475 20.0016V20.002H0.0075619C0.00759228 20.0022 0.00768342 20.0024 0.00783533 20.0025C0.00798942 20.0027 0.00818364 20.0027 0.00841802 20.0027C0.00878044 20.0027 0.00906364 20.0026 0.00926763 20.0023L0.00972988 20.0028C0.00958882 20.003 0.00939784 20.0032 0.00915696 20.0033C0.00891607 20.0034 0.00864914 20.0035 0.00835617 20.0035ZM0.00824875 20.0006C0.00806212 20.0006 0.0079102 20.0007 0.00779302 20.0008C0.007678 20.0009 0.00760421 20.0011 0.00757166 20.0013H0.00888026V20.0012C0.00887592 20.001 0.0088195 20.0009 0.00871099 20.0008C0.00860248 20.0006 0.0084484 20.0006 0.00824875 20.0006ZM0.0112078 19.9999L0.011237 20.0003C0.0114888 20 0.0118262 19.9998 0.0122494 19.9998C0.0126227 19.9998 0.0129005 19.9999 0.0130828 20.0002C0.0132651 20.0004 0.0133584 20.0007 0.0133627 20.0011V20.0034H0.012422V20.0012C0.012422 20.001 0.0123785 20.0008 0.0122917 20.0007C0.0122049 20.0006 0.0120606 20.0006 0.0118588 20.0006C0.011594 20.0006 0.0113955 20.0007 0.0112631 20.0009V20.0034H0.0103223V19.9999H0.0112078ZM0.0161199 20.0034C0.0160765 20.0033 0.016045 20.0032 0.0160255 20.0031C0.0157976 20.0034 0.0155014 20.0035 0.0151368 20.0035C0.0147918 20.0035 0.0145053 20.0034 0.0142774 20.0032C0.0140517 20.003 0.0139389 20.0027 0.0139389 20.0024C0.0139389 20.0021 0.0140767 20.0018 0.0143523 20.0016C0.0146301 20.0014 0.0150305 20.0013 0.0155535 20.0013H0.0159864V20.0011C0.0159864 20.0009 0.0159441 20.0008 0.0158595 20.0007C0.015777 20.0006 0.0156457 20.0005 0.0154656 20.0005C0.0153072 20.0005 0.0151824 20.0006 0.0150912 20.0006C0.0150023 20.0007 0.0149578 20.0008 0.0149578 20.001H0.014017C0.014017 20.0007 0.0140799 20.0006 0.0142058 20.0004C0.0143317 20.0002 0.0145096 20.0001 0.0147397 20C0.0149697 19.9999 0.015228 19.9998 0.0155144 19.9998C0.0159484 19.9998 0.0162924 19.9999 0.0165463 20.0002C0.0168024 20.0004 0.0169304 20.0007 0.0169304 20.0011V20.0026C0.0169326 20.0029 0.0169793 20.0032 0.0170704 20.0034V20.0034H0.0161199ZM0.0153419 20.0028C0.0154808 20.0028 0.0156088 20.0027 0.015726 20.0027C0.0158432 20.0026 0.01593 20.0025 0.0159864 20.0024V20.0018H0.0156349C0.0151639 20.0018 0.0149133 20.002 0.0148829 20.0023L0.0148796 20.0024C0.0148796 20.0025 0.0149209 20.0026 0.0150033 20.0026C0.0150858 20.0027 0.0151987 20.0028 0.0153419 20.0028ZM0.00139975 20.0017V20.0034H0.00042318V19.9987H0.00227215C0.00262805 19.9987 0.00294056 19.9987 0.00320965 19.9989C0.00348092 19.999 0.00368926 19.9992 0.00383466 19.9994C0.00398006 19.9997 0.00405276 19.9999 0.00405276 20.0002C0.00405276 20.0007 0.00389325 20.0011 0.00357424 20.0013C0.0032574 20.0016 0.00281794 20.0017 0.00225587 20.0017H0.00139975ZM0.00139975 20.001H0.00227215C0.0025304 20.001 0.0027268 20.0009 0.00286135 20.0008C0.00299807 20.0007 0.00306642 20.0005 0.00306642 20.0003C0.00306642 20 0.00299807 19.9998 0.00286135 19.9997C0.00272463 19.9995 0.00253582 19.9995 0.00229494 19.9995H0.00139975V20.001ZM0.00666671 20.0034C0.0066233 20.0033 0.00659184 20.0032 0.00657231 20.0031C0.00634444 20.0034 0.00604821 20.0035 0.00568363 20.0035C0.00533857 20.0035 0.00505211 20.0034 0.00482425 20.0032C0.00459855 20.003 0.0044857 20.0027 0.0044857 20.0024C0.0044857 20.0021 0.00462351 20.0018 0.00489912 20.0016C0.0051769 20.0014 0.00557729 20.0013 0.0061003 20.0013H0.00653324V20.0011C0.00653324 20.0009 0.00649093 20.0008 0.00640629 20.0007C0.00632382 20.0006 0.00619253 20.0005 0.00601241 20.0005C0.00585399 20.0005 0.0057292 20.0006 0.00563806 20.0006C0.00554908 20.0007 0.00550459 20.0008 0.00550459 20.001H0.00456383C0.00456383 20.0007 0.00462676 20.0006 0.00475263 20.0004C0.0048785 20.0002 0.00505645 20.0001 0.00528649 20C0.00551653 19.9999 0.00577477 19.9998 0.00606124 19.9998C0.00649527 19.9998 0.00683923 19.9999 0.00709314 20.0002C0.00734922 20.0004 0.00747726 20.0007 0.00747726 20.0011V20.0026C0.00747943 20.0029 0.00752609 20.0032 0.00761723 20.0034V20.0034H0.00666671ZM0.00588871 20.0028C0.0060276 20.0028 0.00615564 20.0027 0.00627282 20.0027C0.00639001 20.0026 0.00647682 20.0025 0.00653324 20.0024V20.0018H0.00618168C0.00571076 20.0018 0.0054601 20.002 0.00542972 20.0023L0.00542647 20.0024C0.00542647 20.0025 0.0054677 20.0026 0.00555016 20.0026C0.00563263 20.0027 0.00574548 20.0028 0.00588871 20.0028ZM0.00906581 19.9999L0.00909511 20.0003C0.00934685 20 0.0096843 19.9998 0.0101075 19.9998C0.0104808 19.9998 0.0107585 19.9999 0.0109408 20.0002C0.0111231 20.0004 0.0112164 20.0007 0.0112208 20.0011V20.0034H0.01028V20.0012C0.01028 20.001 0.0102366 20.0008 0.0101498 20.0007C0.010063 20.0006 0.00991868 20.0006 0.00971686 20.0006C0.0094521 20.0006 0.00925353 20.0007 0.00912115 20.0009V20.0034H0.00818039V19.9999H0.00906581ZM0.013978 20.0034C0.0139345 20.0033 0.0139031 20.0032 0.0138835 20.0031C0.0136557 20.0034 0.0133595 20.0035 0.0129949 20.0035C0.0126498 20.0035 0.0123634 20.0034 0.0121355 20.0032C0.0119098 20.003 0.0117969 20.0027 0.0117969 20.0024C0.0117969 20.0021 0.0119348 20.0018 0.0122104 20.0016C0.0124881 20.0014 0.0128885 20.0013 0.0134115 20.0013H0.0138445V20.0011C0.0138445 20.0009 0.0138022 20.0008 0.0137175 20.0007C0.0136351 20.0006 0.0135038 20.0005 0.0133236 20.0005C0.0131652 20.0005 0.0130404 20.0006 0.0129493 20.0006C0.0128603 20.0007 0.0128158 20.0008 0.0128158 20.001H0.0118751C0.0118751 20.0007 0.011938 20.0006 0.0120639 20.0004C0.0121897 20.0002 0.0123677 20.0001 0.0125977 20C0.0128278 19.9999 0.013086 19.9998 0.0133725 19.9998C0.0138065 19.9998 0.0141505 19.9999 0.0144044 20.0002C0.0146605 20.0004 0.0147885 20.0007 0.0147885 20.0011V20.0026C0.0147907 20.0029 0.0148373 20.0032 0.0149285 20.0034V20.0034H0.013978ZM0.0132 20.0028C0.0133388 20.0028 0.0134669 20.0027 0.0135841 20.0027C0.0137013 20.0026 0.0137881 20.0025 0.0138445 20.0024V20.0018H0.0134929C0.013022 20.0018 0.0127713 20.002 0.012741 20.0023L0.0127377 20.0024C0.0127377 20.0025 0.0127789 20.0026 0.0128614 20.0026C0.0129439 20.0027 0.0130567 20.0028 0.0132 20.0028ZM0.0174187 20.0024C0.0174187 20.0023 0.0173612 20.0022 0.0172462 20.0022C0.0171334 20.0021 0.0169511 20.002 0.0166993 20.002C0.0158616 20.0018 0.0154428 20.0015 0.0154428 20.0009C0.0154428 20.0006 0.0155719 20.0004 0.0158302 20.0001C0.0160906 19.9999 0.0164302 19.9998 0.0168491 19.9998C0.0172961 19.9998 0.0176531 19.9999 0.01792 20.0001C0.0181891 20.0004 0.0183237 20.0006 0.0183237 20.001H0.0173829C0.0173829 20.0008 0.0173395 20.0007 0.0172527 20.0006C0.0171659 20.0005 0.0170303 20.0005 0.0168458 20.0005C0.0166874 20.0005 0.0165648 20.0005 0.016478 20.0006C0.0163912 20.0007 0.0163478 20.0008 0.0163478 20.0009C0.0163478 20.001 0.0163966 20.0011 0.0164942 20.0011C0.0165941 20.0012 0.0167612 20.0013 0.0169955 20.0013C0.0172299 20.0013 0.0174274 20.0014 0.017588 20.0015C0.018085 20.0016 0.0183334 20.002 0.0183334 20.0024C0.0183334 20.0027 0.0181956 20.003 0.01792 20.0032C0.0176444 20.0034 0.0172885 20.0035 0.0168523 20.0035C0.0165572 20.0035 0.0162946 20.0034 0.0160646 20.0033C0.0158367 20.0032 0.0156576 20.0031 0.0155274 20.0029C0.0153972 20.0027 0.0153321 20.0025 0.0153321 20.0023H0.0162241C0.0162327 20.0025 0.0162946 20.0026 0.0164096 20.0027C0.0165246 20.0028 0.0166787 20.0028 0.0168718 20.0028C0.017052 20.0028 0.0171876 20.0028 0.0172788 20.0027C0.0173721 20.0026 0.0174187 20.0026 0.0174187 20.0024ZM0.0187957 20.0016C0.0187957 20.0013 0.018863 20.001 0.0189975 20.0007C0.0191321 20.0004 0.0193252 20.0002 0.0195769 20.0001C0.0198309 19.9999 0.0201249 19.9998 0.0204591 19.9998C0.0209344 19.9998 0.0213217 20 0.0216212 20.0003C0.0219229 20.0006 0.0220911 20.001 0.0221258 20.0015L0.0221323 20.0017C0.0221323 20.0022 0.0219815 20.0027 0.0216798 20.003C0.0213782 20.0033 0.0209734 20.0035 0.0204656 20.0035C0.0199578 20.0035 0.019552 20.0033 0.0192482 20.003C0.0189465 20.0027 0.0187957 20.0022 0.0187957 20.0017V20.0016ZM0.0197364 20.0017C0.0197364 20.002 0.0197994 20.0023 0.0199253 20.0025C0.0200511 20.0026 0.0202312 20.0027 0.0204656 20.0027C0.0206935 20.0027 0.0208714 20.0026 0.0209995 20.0025C0.0211275 20.0023 0.0211915 20.002 0.0211915 20.0016C0.0211915 20.0013 0.0211275 20.001 0.0209995 20.0009C0.0208714 20.0007 0.0206913 20.0006 0.0204591 20.0006C0.0202291 20.0006 0.0200511 20.0007 0.0199253 20.0009C0.0197994 20.001 0.0197364 20.0013 0.0197364 20.0017ZM0.023978 20.0023L0.0246323 19.9999H0.0256154L0.0244272 20.0034H0.0235288L0.0223406 19.9999H0.0233237L0.023978 20.0023ZM0.0279396 20.0024C0.0279396 20.0023 0.0278821 20.0022 0.0277671 20.0022C0.0276542 20.0021 0.027472 20.002 0.0272202 20.002C0.0263825 20.0018 0.0259637 20.0015 0.0259637 20.0009C0.0259637 20.0006 0.0260928 20.0004 0.0263511 20.0001C0.0266115 19.9999 0.0269511 19.9998 0.02737 19.9998C0.027817 19.9998 0.028174 19.9999 0.0284409 20.0001C0.02871 20.0004 0.0288446 20.0006 0.0288446 20.001H0.0279038C0.0279038 20.0008 0.0278604 20.0007 0.0277736 20.0006C0.0276868 20.0005 0.0275512 20.0005 0.0273667 20.0005C0.0272083 20.0005 0.0270857 20.0005 0.0269989 20.0006C0.0269121 20.0007 0.0268687 20.0008 0.0268687 20.0009C0.0268687 20.001 0.0269175 20.0011 0.0270151 20.0011C0.027115 20.0012 0.0272821 20.0013 0.0275164 20.0013C0.0277508 20.0013 0.0279483 20.0014 0.0281089 20.0015C0.0286059 20.0016 0.0288543 20.002 0.0288543 20.0024C0.0288543 20.0027 0.0287165 20.003 0.0284409 20.0032C0.0281653 20.0034 0.0278094 20.0035 0.0273732 20.0035C0.0270781 20.0035 0.0268155 20.0034 0.0265854 20.0033C0.0263576 20.0032 0.0261785 20.0031 0.0260483 20.0029C0.0259181 20.0027 0.025853 20.0025 0.025853 20.0023H0.026745C0.0267536 20.0025 0.0268155 20.0026 0.0269305 20.0027C0.0270455 20.0028 0.0271996 20.0028 0.0273927 20.0028C0.0275729 20.0028 0.0277085 20.0028 0.0277996 20.0027C0.027893 20.0026 0.0279396 20.0026 0.0279396 20.0024ZM0.0307424 20.002L0.0304038 20.0023V20.0034H0.0294631V19.9984H0.0304038V20.0012L0.0305861 20.001L0.0314878 19.9999H0.0326174L0.0313446 20.0014L0.0327281 20.0034H0.0316473L0.0307424 20.002ZM0.0350653 20.0034C0.0350219 20.0033 0.0349904 20.0032 0.0349709 20.0031C0.034743 20.0034 0.0344468 20.0035 0.0340822 20.0035C0.0337372 20.0035 0.0334507 20.0034 0.0332229 20.0032C0.0329972 20.003 0.0328843 20.0027 0.0328843 20.0024C0.0328843 20.0021 0.0330221 20.0018 0.0332977 20.0016C0.0335755 20.0014 0.0339759 20.0013 0.0344989 20.0013H0.0349319V20.0011C0.0349319 20.0009 0.0348895 20.0008 0.0348049 20.0007C0.0347224 20.0006 0.0345911 20.0005 0.034411 20.0005C0.0342526 20.0005 0.0341278 20.0006 0.0340367 20.0006C0.0339477 20.0007 0.0339032 20.0008 0.0339032 20.001H0.0329624C0.0329624 20.0007 0.0330254 20.0006 0.0331512 20.0004C0.0332771 20.0002 0.0334551 20.0001 0.0336851 20C0.0339151 19.9999 0.0341734 19.9998 0.0344598 19.9998C0.0348939 19.9998 0.0352378 19.9999 0.0354918 20.0002C0.0357478 20.0004 0.0358759 20.0007 0.0358759 20.0011V20.0026C0.035878 20.0029 0.0359247 20.0032 0.0360158 20.0034V20.0034H0.0350653ZM0.0342873 20.0028C0.0344262 20.0028 0.0345542 20.0027 0.0346714 20.0027C0.0347886 20.0026 0.0348754 20.0025 0.0349319 20.0024V20.0018H0.0345803C0.0341094 20.0018 0.0338587 20.002 0.0338283 20.0023L0.0338251 20.0024C0.0338251 20.0025 0.0338663 20.0026 0.0339488 20.0026C0.0340312 20.0027 0.0341441 20.0028 0.0342873 20.0028Z" fill="black"/>
<path d="M0.000618493 20.0049V20.0021H9.44016e-05V20.0014H0.000618493V20.0011C0.000618493 20.0007 0.000731341 20.0004 0.000957037 20.0001C0.0011849 19.9999 0.00150283 19.9998 0.00191082 19.9998C0.00204103 19.9998 0.00220053 19.9998 0.00238934 19.9999L0.00237957 20.0006C0.00230145 20.0006 0.00220596 20.0006 0.00209311 20.0006C0.00173938 20.0006 0.00156251 20.0007 0.00156251 20.0011V20.0014H0.00226238V20.0021H0.00156251V20.0049H0.000618493ZM0.00472985 20.0022C0.00460181 20.0022 0.00448896 20.0022 0.0043913 20.0022C0.0040354 20.0022 0.00380211 20.0023 0.00369143 20.0026V20.0049H0.00275067V20.0014H0.00363935L0.00366539 20.0018C0.00385419 20.0015 0.00411569 20.0013 0.0044499 20.0013C0.00455406 20.0013 0.00465172 20.0013 0.00474287 20.0013L0.00472985 20.0022ZM0.0049219 20.0031C0.0049219 20.0027 0.00498918 20.0024 0.00512373 20.0022C0.00525828 20.0019 0.00545142 20.0017 0.00570316 20.0015C0.00595707 20.0014 0.00625112 20.0013 0.00658533 20.0013C0.00706059 20.0013 0.00744796 20.0014 0.00774744 20.0017C0.00804909 20.002 0.00821728 20.0024 0.008252 20.0029L0.00825851 20.0032C0.00825851 20.0037 0.00810769 20.0041 0.00780604 20.0045C0.00750439 20.0048 0.00709965 20.0049 0.00659184 20.0049C0.00608402 20.0049 0.0056782 20.0048 0.00537438 20.0045C0.00507273 20.0041 0.0049219 20.0037 0.0049219 20.0031V20.0031ZM0.00586267 20.0032C0.00586267 20.0035 0.0059256 20.0037 0.00605147 20.0039C0.00617734 20.0041 0.00635746 20.0042 0.00659184 20.0042C0.0068197 20.0042 0.00699766 20.0041 0.00712569 20.0039C0.00725373 20.0038 0.00731775 20.0035 0.00731775 20.0031C0.00731775 20.0028 0.00725373 20.0025 0.00712569 20.0023C0.00699766 20.0021 0.00681753 20.0021 0.00658533 20.0021C0.00635529 20.0021 0.00617734 20.0021 0.00605147 20.0023C0.0059256 20.0025 0.00586267 20.0028 0.00586267 20.0032ZM0.00972011 20.0014L0.00974941 20.0018C0.00999898 20.0014 0.0103364 20.0013 0.0107618 20.0013C0.0112153 20.0013 0.0115268 20.0015 0.011696 20.0018C0.0119434 20.0015 0.0122961 20.0013 0.012754 20.0013C0.0131359 20.0013 0.0134202 20.0014 0.0136069 20.0016C0.0137935 20.0019 0.0138868 20.0022 0.0138868 20.0026V20.0049H0.0129428V20.0026C0.0129428 20.0024 0.0129037 20.0023 0.0128256 20.0022C0.0127475 20.0021 0.0126097 20.0021 0.0124122 20.0021C0.0121301 20.0021 0.0119348 20.0022 0.0118262 20.0025L0.0118295 20.0049H0.0108887V20.0026C0.0108887 20.0024 0.0108486 20.0023 0.0107683 20.0022C0.010688 20.0021 0.0105513 20.0021 0.0103581 20.0021C0.0100912 20.0021 0.00989806 20.0022 0.00977871 20.0024V20.0049H0.00883794V20.0014H0.00972011ZM0.0173992 20.0005V20.0014H0.0180014V20.0021H0.0173992V20.0038C0.0173992 20.0039 0.0174242 20.004 0.0174741 20.0041C0.017524 20.0041 0.0176195 20.0042 0.0177605 20.0042C0.0178647 20.0042 0.0179569 20.0042 0.0180372 20.0042V20.0049C0.0178528 20.0049 0.0176629 20.0049 0.0174676 20.0049C0.0168078 20.0049 0.0164715 20.0046 0.0164584 20.0039V20.0021H0.0159441V20.0014H0.0164584V20.0005H0.0173992ZM0.0194435 20.0017C0.019693 20.0014 0.0200066 20.0013 0.0203842 20.0013C0.0211481 20.0013 0.0215355 20.0017 0.0215464 20.0026V20.0049H0.0206056V20.0027C0.0206056 20.0025 0.0205622 20.0023 0.0204754 20.0022C0.0203886 20.0021 0.0202443 20.0021 0.0200424 20.0021C0.0197668 20.0021 0.0195672 20.0022 0.0194435 20.0024V20.0049H0.0185027V19.9999H0.0194435V20.0017ZM0.0238771 20.0049C0.0233606 20.0049 0.0229396 20.0048 0.0226141 20.0045C0.0222907 20.0042 0.022129 20.0037 0.022129 20.0032V20.0031C0.022129 20.0028 0.0221974 20.0024 0.0223341 20.0022C0.0224708 20.0019 0.022664 20.0017 0.0229135 20.0015C0.0231653 20.0014 0.0234517 20.0013 0.0237729 20.0013C0.0242547 20.0013 0.0246334 20.0014 0.024909 20.0018C0.0251868 20.0021 0.0253257 20.0025 0.0253257 20.003V20.0034H0.0230828C0.0231132 20.0037 0.0232044 20.0038 0.0233563 20.004C0.0235103 20.0041 0.0237046 20.0042 0.0239389 20.0042C0.0243014 20.0042 0.0245846 20.0041 0.0247886 20.0038L0.0252508 20.0043C0.0251097 20.0045 0.0249188 20.0047 0.0246779 20.0048C0.024437 20.0049 0.0241701 20.0049 0.0238771 20.0049ZM0.0237697 20.0021C0.023583 20.0021 0.0234311 20.0021 0.0233139 20.0022C0.0231989 20.0024 0.0231251 20.0026 0.0230926 20.0028H0.0244012V20.0027C0.0243968 20.0025 0.0243404 20.0023 0.0242319 20.0022C0.0241234 20.0021 0.0239693 20.0021 0.0237697 20.0021ZM0.00427737 20.0049H0.0033008L0.00139975 20.0018V20.0049H0.00042318V20.0001H0.00139975L0.00330406 20.0033V20.0001H0.00427737V20.0049ZM0.0049219 20.0031C0.0049219 20.0027 0.00498918 20.0024 0.00512373 20.0022C0.00525828 20.0019 0.00545142 20.0017 0.00570316 20.0015C0.00595707 20.0014 0.00625112 20.0013 0.00658533 20.0013C0.00706059 20.0013 0.00744796 20.0014 0.00774744 20.0017C0.00804909 20.002 0.00821728 20.0024 0.008252 20.0029L0.00825851 20.0032C0.00825851 20.0037 0.00810769 20.0041 0.00780604 20.0045C0.00750439 20.0048 0.00709965 20.0049 0.00659184 20.0049C0.00608402 20.0049 0.0056782 20.0048 0.00537438 20.0045C0.00507273 20.0041 0.0049219 20.0037 0.0049219 20.0031V20.0031ZM0.00586267 20.0032C0.00586267 20.0035 0.0059256 20.0037 0.00605147 20.0039C0.00617734 20.0041 0.00635746 20.0042 0.00659184 20.0042C0.0068197 20.0042 0.00699766 20.0041 0.00712569 20.0039C0.00725373 20.0038 0.00731775 20.0035 0.00731775 20.0031C0.00731775 20.0028 0.00725373 20.0025 0.00712569 20.0023C0.00699766 20.0021 0.00681753 20.0021 0.00658533 20.0021C0.00635529 20.0021 0.00617734 20.0021 0.00605147 20.0023C0.0059256 20.0025 0.00586267 20.0028 0.00586267 20.0032ZM0.0109473 20.0045C0.0107151 20.0048 0.0103939 20.0049 0.00998378 20.0049C0.00960618 20.0049 0.00931755 20.0048 0.00911789 20.0046C0.00892041 20.0044 0.0088195 20.0041 0.00881516 20.0037V20.0014H0.00975592V20.0036C0.00975592 20.004 0.00992302 20.0042 0.0102572 20.0042C0.0105762 20.0042 0.0107954 20.0041 0.0109148 20.0039V20.0014H0.0118588V20.0049H0.0109734L0.0109473 20.0045ZM0.0134343 20.0014L0.0134636 20.0018C0.0137154 20.0015 0.0140528 20.0013 0.014476 20.0013C0.0148493 20.0013 0.015127 20.0014 0.0153093 20.0016C0.0154916 20.0018 0.0155849 20.0022 0.0155893 20.0026V20.0049H0.0146485V20.0026C0.0146485 20.0024 0.0146051 20.0023 0.0145183 20.0022C0.0144315 20.0021 0.0142872 20.0021 0.0140854 20.0021C0.0138206 20.0021 0.013622 20.0022 0.0134897 20.0024V20.0049H0.0125489V20.0014H0.0134343ZM0.019004 20.0032V20.0049H0.0180275V20.0001H0.0198764C0.0202323 20.0001 0.0205448 20.0002 0.0208139 20.0003C0.0210852 20.0005 0.0212935 20.0007 0.0214389 20.0009C0.0215843 20.0011 0.021657 20.0014 0.021657 20.0017C0.021657 20.0022 0.0214975 20.0025 0.0211785 20.0028C0.0208617 20.0031 0.0204222 20.0032 0.0198601 20.0032H0.019004ZM0.019004 20.0024H0.0198764C0.0201347 20.0024 0.0203311 20.0024 0.0204656 20.0022C0.0206023 20.0021 0.0206707 20.0019 0.0206707 20.0017C0.0206707 20.0015 0.0206023 20.0013 0.0204656 20.0012C0.0203289 20.001 0.0201401 20.0009 0.0198992 20.0009H0.019004V20.0024ZM0.0242482 20.0022C0.0241202 20.0022 0.0240073 20.0022 0.0239097 20.0022C0.0235537 20.0022 0.0233205 20.0023 0.0232098 20.0026V20.0049H0.022269V20.0014H0.0231577L0.0231837 20.0018C0.0233725 20.0015 0.023634 20.0013 0.0239682 20.0013C0.0240724 20.0013 0.0241701 20.0013 0.0242612 20.0013L0.0242482 20.0022ZM0.0244403 20.0031C0.0244403 20.0027 0.0245075 20.0024 0.0246421 20.0022C0.0247766 20.0019 0.0249698 20.0017 0.0252215 20.0015C0.0254754 20.0014 0.0257695 20.0013 0.0261037 20.0013C0.0265789 20.0013 0.0269663 20.0014 0.0272658 20.0017C0.0275674 20.002 0.0277356 20.0024 0.0277704 20.0029L0.0277769 20.0032C0.0277769 20.0037 0.027626 20.0041 0.0273244 20.0045C0.0270227 20.0048 0.026618 20.0049 0.0261102 20.0049C0.0256024 20.0049 0.0251966 20.0048 0.0248927 20.0045C0.0245911 20.0041 0.0244403 20.0037 0.0244403 20.0031V20.0031ZM0.025381 20.0032C0.025381 20.0035 0.0254439 20.0037 0.0255698 20.0039C0.0256957 20.0041 0.0258758 20.0042 0.0261102 20.0042C0.0263381 20.0042 0.026516 20.0041 0.026644 20.0039C0.0267721 20.0038 0.0268361 20.0035 0.0268361 20.0031C0.0268361 20.0028 0.0267721 20.0025 0.026644 20.0023C0.026516 20.0021 0.0263359 20.0021 0.0261037 20.0021C0.0258736 20.0021 0.0256957 20.0021 0.0255698 20.0023C0.0254439 20.0025 0.025381 20.0028 0.025381 20.0032ZM0.0293524 20.0014V20.0051C0.0293524 20.0055 0.0292493 20.0058 0.0290431 20.006C0.028837 20.0062 0.0285397 20.0063 0.0281512 20.0063C0.0279885 20.0063 0.0278333 20.0063 0.0276857 20.0063V20.0055C0.0277986 20.0055 0.0278973 20.0055 0.0279819 20.0055C0.0282662 20.0055 0.0284084 20.0054 0.0284084 20.0051V20.0014H0.0293524ZM0.0283335 20.0004C0.0283335 20.0003 0.0283802 20.0002 0.0284735 20.0001C0.028569 20 0.0286981 20 0.0288609 20C0.0290236 20 0.0291517 20 0.029245 20.0001C0.0293405 20.0002 0.0293882 20.0003 0.0293882 20.0004C0.0293882 20.0006 0.0293394 20.0007 0.0292417 20.0008C0.0291462 20.0009 0.0290193 20.0009 0.0288609 20.0009C0.0287024 20.0009 0.0285744 20.0009 0.0284767 20.0008C0.0283812 20.0007 0.0283335 20.0006 0.0283335 20.0004ZM0.0317092 20.0049C0.0311927 20.0049 0.0307717 20.0048 0.0304461 20.0045C0.0301228 20.0042 0.0299611 20.0037 0.0299611 20.0032V20.0031C0.0299611 20.0028 0.0300295 20.0024 0.0301662 20.0022C0.0303029 20.0019 0.0304961 20.0017 0.0307456 20.0015C0.0309974 20.0014 0.0312838 20.0013 0.031605 20.0013C0.0320868 20.0013 0.0324655 20.0014 0.0327411 20.0018C0.0330189 20.0021 0.0331578 20.0025 0.0331578 20.003V20.0034H0.0309149C0.0309453 20.0037 0.0310364 20.0038 0.0311883 20.004C0.0313424 20.0041 0.0315367 20.0042 0.031771 20.0042C0.0321334 20.0042 0.0324166 20.0041 0.0326206 20.0038L0.0330829 20.0043C0.0329418 20.0045 0.0327509 20.0047 0.03251 20.0048C0.0322691 20.0049 0.0320021 20.0049 0.0317092 20.0049ZM0.0316018 20.0021C0.0314151 20.0021 0.0312632 20.0021 0.031146 20.0022C0.031031 20.0024 0.0309572 20.0026 0.0309247 20.0028H0.0322333V20.0027C0.0322289 20.0025 0.0321725 20.0023 0.032064 20.0022C0.0319555 20.0021 0.0318014 20.0021 0.0316018 20.0021ZM0.0351597 20.0042C0.0353333 20.0042 0.0354744 20.0041 0.0355829 20.004C0.0356914 20.004 0.0357478 20.0038 0.0357522 20.0037H0.0366343C0.0366322 20.0039 0.0365671 20.0041 0.036439 20.0043C0.036311 20.0045 0.0361352 20.0047 0.0359117 20.0048C0.0356903 20.0049 0.0354451 20.0049 0.035176 20.0049C0.0346725 20.0049 0.0342754 20.0048 0.0339846 20.0045C0.0336938 20.0041 0.0335484 20.0037 0.0335484 20.0031V20.0031C0.0335484 20.0025 0.0336927 20.0021 0.0339813 20.0018C0.03427 20.0015 0.034666 20.0013 0.0351695 20.0013C0.03561 20.0013 0.0359627 20.0014 0.0362274 20.0017C0.0364944 20.0019 0.03663 20.0023 0.0366343 20.0027H0.0357522C0.0357478 20.0025 0.0356914 20.0023 0.0355829 20.0022C0.0354744 20.0021 0.0353312 20.0021 0.0351532 20.0021C0.034934 20.0021 0.034768 20.0021 0.0346552 20.0023C0.0345445 20.0025 0.0344891 20.0027 0.0344891 20.0031V20.0032C0.0344891 20.0035 0.0345445 20.0038 0.0346552 20.004C0.0347658 20.0041 0.034934 20.0042 0.0351597 20.0042ZM0.0382978 20.0005V20.0014H0.0389V20.0021H0.0382978V20.0038C0.0382978 20.0039 0.0383227 20.004 0.0383726 20.0041C0.0384225 20.0041 0.038518 20.0042 0.0386591 20.0042C0.0387633 20.0042 0.0388555 20.0042 0.0389358 20.0042V20.0049C0.0387513 20.0049 0.0385614 20.0049 0.0383661 20.0049C0.0377064 20.0049 0.03737 20.0046 0.037357 20.0039V20.0021H0.0368427V20.0014H0.037357V20.0005H0.0382978Z" fill="black"/>
</g>
<defs>
<clipPath id="clip0">
<rect width="25" height="25" fill="white"/>
</clipPath>
</defs>
</svg>
