<svg xmlns="http://www.w3.org/2000/svg" xmlns:xlink="http://www.w3.org/1999/xlink" xml:space="preserve" version="1.1" style="shape-rendering:geometricPrecision;text-rendering:geometricPrecision;image-rendering:optimizeQuality;" viewBox="0 0 60000 75000" x="0px" y="0px" fill-rule="evenodd" clip-rule="evenodd"><defs><style type="text/css">
   
    .fil0 {fill:black;fill-rule:nonzero}
   
  </style></defs><g><path class="fil0" d="M3873 36710l-44 18556 942 0c221,0 400,179 400,400l0 2146c0,221 -179,400 -400,400l-2212 0c-221,0 -400,-179 -400,-400l0 -2146c0,-221 179,-400 400,-400l771 0 44 -18561 -1912 -18c-192,9 -368,-123 -408,-317 -749,-3570 72,-7857 1889,-11660 1814,-3797 4627,-7125 7869,-8790 165,-94 380,-59 505,94l2677 3250 1488 711c199,95 284,333 189,533l-3021 6324 13116 6432c198,97 279,335 183,533 -97,198 -335,279 -533,183l-13109 -6428 -1149 2406 14429 6767c199,93 285,330 192,530 -93,199 -330,285 -530,192l-14435 -6770 -3173 6643c-95,199 -333,284 -533,189l-1566 -748c-20,-9 -39,-20 -56,-33l-1614 -15zm37107 -25164l-687 -409 409 -687 687 409 -409 687zm-7370 12371l-687 -409 409 -687 687 409 -409 687zm819 -1375l-687 -409 409 -687 687 409 -409 687zm819 -1375l-687 -409 409 -687 687 409 -409 687zm819 -1375l-687 -409 409 -687 687 409 -409 687zm819 -1375l-687 -409 409 -687 687 409 -409 687zm819 -1375l-687 -409 409 -687 687 409 -409 687zm819 -1375l-687 -409 409 -687 687 409 -409 687zm819 -1375l-687 -409 409 -687 687 409 -409 687zm819 -1375l-687 -409 409 -687 687 409 -409 687zm2603 9021l-390 -698 698 -390 390 698 -698 390zm-6982 3905l-390 -698 698 -390 390 698 -698 390zm1396 -781l-390 -698 698 -390 390 698 -698 390zm1396 -781l-390 -698 698 -390 390 698 -698 390zm1396 -781l-390 -698 698 -390 390 698 -698 390zm1396 -781l-390 -698 698 -390 390 698 -698 390zm-273 6153l11 -800 800 11 -11 800 -800 -11zm-4800 -66l11 -800 800 11 -11 800 -800 -11zm1600 22l11 -800 800 11 -11 800 -800 -11zm1600 22l11 -800 800 11 -11 800 -800 -11zm-18965 -971l-2 800 -800 -2 2 -800 800 2zm4800 12l-2 800 -800 -2 2 -800 800 2zm-1600 -4l-2 800 -800 -2 2 -800 800 2zm-1600 -4l-2 800 -800 -2 2 -800 800 2zm-3146 -6860l-409 687 -687 -409 409 -687 687 409zm6873 4095l-409 687 -687 -409 409 -687 687 409zm-1375 -819l-409 687 -687 -409 409 -687 687 409zm-1375 -819l-409 687 -687 -409 409 -687 687 409zm-1375 -819l-409 687 -687 -409 409 -687 687 409zm-1375 -819l-409 687 -687 -409 409 -687 687 409zm842 -10954l-698 390 -390 -698 698 -390 390 698zm7029 12568l-698 390 -390 -698 698 -390 390 698zm-781 -1396l-698 390 -390 -698 698 -390 390 698zm-781 -1396l-698 390 -390 -698 698 -390 390 698zm-781 -1396l-698 390 -390 -698 698 -390 390 698zm-781 -1396l-698 390 -390 -698 698 -390 390 698zm-781 -1396l-698 390 -390 -698 698 -390 390 698zm-781 -1396l-698 390 -390 -698 698 -390 390 698zm-781 -1396l-698 390 -390 -698 698 -390 390 698zm-781 -1396l-698 390 -390 -698 698 -390 390 698zm9196 -3720l-800 -11 11 -800 800 11 -11 800zm-197 14399l-800 -11 11 -800 800 11 -11 800zm22 -1600l-800 -11 11 -800 800 11 -11 800zm22 -1600l-800 -11 11 -800 800 11 -11 800zm22 -1600l-800 -11 11 -800 800 11 -11 800zm22 -1600l-800 -11 11 -800 800 11 -11 800zm22 -1600l-800 -11 11 -800 800 11 -11 800zm22 -1600l-800 -11 11 -800 800 11 -11 800zm22 -1600l-800 -11 11 -800 800 11 -11 800zm22 -1600l-800 -11 11 -800 800 11 -11 800zm2595 31080l5365 16305c69,210 -45,436 -255,505 -210,69 -436,-45 -505,-255l-5294 -16091 -5499 0 -5294 16091c-69,210 -295,324 -505,255 -210,-69 -324,-295 -255,-505l5385 -16366c7,-20 15,-39 24,-57l0 -7327 2 0 0 -12c4,-888 444,-1611 1100,-2110 631,-480 1467,-748 2298,-748l33 0 0 -2c830,0 1666,269 2298,750 657,499 1096,1222 1100,2110l0 12 2 0 0 7446zm-1957 3359c-69,-210 45,-436 255,-505 210,-69 436,45 505,255l3298 10025c69,210 -45,436 -255,505 -210,69 -436,-45 -505,-255l-3298 -10025zm-3723 -250c69,-210 295,-324 505,-255 210,69 324,295 255,505l-3299 10025c-69,210 -295,324 -505,255 -210,-69 -324,-295 -255,-505l3299 -10025zm2280 -12629l-33 0c-662,0 -1323,210 -1817,586 -468,356 -782,864 -785,1479l0 9 2 0 0 7109 5233 0 0 -7109 2 0 0 -9c-3,-615 -317,-1123 -785,-1479 -493,-374 -1153,-584 -1817,-584l0 -2zm-22161 -10358l-3 4c-115,244 -121,512 -38,748 84,238 258,443 503,560l0 -1c245,117 515,124 752,40 237,-84 442,-258 559,-503 117,-245 124,-515 40,-752 -84,-238 -258,-443 -503,-560l0 1c-245,-117 -515,-124 -752,-40 -237,84 -442,258 -559,503zm-451 -215c176,-369 486,-632 844,-759 358,-126 764,-117 1133,60l4 3c368,177 629,485 755,841 126,358 117,764 -60,1133 -176,369 -486,632 -844,759 -358,126 -764,117 -1133,-60l-4 -3c-368,-177 -629,-485 -755,-841 -126,-357 -116,-763 60,-1132l-1 0zm-4352 10268c-117,245 -123,514 -39,752 84,238 258,443 503,560l0 -1c245,117 515,124 752,40 225,-80 422,-241 541,-466l18 -37c117,-245 124,-515 40,-752 -84,-237 -258,-442 -503,-559l0 -1 -1 0c-245,-117 -514,-123 -752,-39 -238,84 -443,258 -560,503zm-449 -215c177,-370 486,-633 843,-759 339,-120 722,-117 1077,35l5 0 51 24c369,176 632,486 759,844 120,341 117,724 -35,1079l0 1 -3 7c-7,15 -14,31 -21,46l-1 0 0 0c-177,370 -486,633 -843,759 -358,126 -764,117 -1133,-60l-4 -3c-368,-177 -629,-485 -755,-841 -126,-357 -116,-763 61,-1133zm10336 -11566l-2366 -2872c-2967,1625 -5549,4737 -7243,8283 -1693,3545 -2491,7510 -1891,10840l3720 35 7779 -16285zm658 477l-7685 16089 844 403 3142 -6577c6,-21 13,-42 23,-62l1 -3 -1 -1 1496 -3131c11,-24 25,-46 40,-66l2985 -6249 -844 -403zm21778 18605c-199,-95 -284,-333 -189,-533 95,-199 333,-284 533,-189l7255 3465c8,4 28,15 61,33 196,108 600,404 843,900 243,495 333,1181 -86,2058 -28,59 -65,129 -111,212l-3 6 0 0c-264,455 -653,730 -1101,836 -452,108 -958,39 -1443,-193l-6563 -3135c-199,-95 -284,-333 -189,-533 95,-199 333,-284 533,-189l6563 3135c321,153 641,202 915,137 240,-57 450,-207 595,-458l0 0c25,-45 52,-100 82,-162 291,-609 244,-1055 92,-1364 -151,-307 -396,-488 -515,-554 -4,-2 -3,-1 -18,-8l-7255 -3465zm15179 -36688c0,-138 112,-249 249,-249 138,0 249,112 249,249l17 6320 314 0c221,0 400,179 400,400l0 1135 864 0c132,0 249,64 322,162l1420 1701 1367 4c220,0 398,178 398,398l0 2c0,124 -1,515 -1,1146 0,628 0,1018 1,1141 1,220 -177,399 -397,400l-2 0 -1517 1 659 8127 1103 0c221,0 400,179 400,400 0,513 3,838 5,1163 4,525 8,1050 8,1166 0,221 -179,400 -400,400l-871 0 652 8338 1336 0c221,0 400,179 400,400 0,11 0,22 -1,33l13 2294c1,220 -177,399 -397,400l-2 0 0 2 -1104 0 884 11304 1563 0c221,0 400,179 400,400l0 2328c0,221 -179,400 -400,400l-1318 0 444 5669c16,220 -149,412 -369,428 -220,16 -412,-149 -428,-369l-27 -342 -5903 -2635 -6346 2828 -13 161c-16,220 -208,385 -428,369 -220,-16 -385,-208 -369,-428l445 -5682 -1192 0c-221,0 -400,-179 -400,-400l0 -2328c0,-221 179,-400 400,-400l1437 0 884 -11304 -1192 0c-221,0 -400,-179 -400,-400l0 -2328c0,-221 179,-400 400,-400l1436 0 652 -8338 -1009 0c-221,0 -400,-179 -400,-400l0 -2328c0,-221 179,-400 400,-400l1254 0 636 -8122 -1311 1c-220,0 -398,-178 -398,-398l-2 0 0 -2328c0,-221 179,-400 400,-400 12,0 24,1 37,2l1369 4 1416 -1696c79,-94 192,-143 306,-143l0 -1 895 0 0 -1135c0,-221 179,-400 400,-400l379 0 -17 -6320zm1228 8655l0 1054 1563 5 -885 -1060 -678 0zm-1991 1048l0 -1048 -709 0 -871 1043 1579 5zm1191 -2583l-391 0 0 2428 391 0 0 -2428zm2793 13816l-3139 -4101 -3139 4101 6278 0zm-3390 -4430l-2532 -3309 -577 7371 3109 -4062zm-2324 -3693l2575 3365 2578 -3368 -5153 3zm2827 3693l3186 4163 -610 -7529 -2576 3366zm3815 15896l-4001 -4173 -4001 4173 8003 0zm-4278 -4462l-3445 -3593 -612 7824 4057 -4231zm-3164 -3876l3440 3588 3440 -3588 -6881 0zm3717 3876l3993 4164 -602 -7700 -3390 3536zm4957 18894l-5217 -5860 -5217 5860 10433 0zm-5484 -6161l-4364 -4902 -841 10749 5205 -5847zm-4044 -5144l4312 4843 4312 -4843 -8623 0zm4579 5144l5104 5733 -825 -10540 -4279 4807zm-6410 14417l5822 -2595 -5429 -2424 -393 5018zm6311 -2813l5195 -2315 -10380 0 5186 2315zm5504 -2017l-5015 2235 5378 2401 -363 -4636zm-10798 -26997l981 0 0 -1528 -981 0 0 1528zm1781 0l1586 0 0 -1528 -1586 0 0 1528zm2386 0l1586 0 0 -1528 -1586 0 0 1528zm2386 0l1586 0 0 -1528 -1586 0 0 1528zm2386 0l1082 0c-1,-300 -3,-531 -4,-763l-6 -766 -1072 0 0 1528zm-10018 11466l981 0 0 -1528 -981 0 0 1528zm1781 0l1586 0 0 -1528 -1586 0 0 1528zm2386 0l1586 0 0 -1528 -1586 0 0 1528zm2386 0l1586 0 0 -1528 -1586 0 0 1528zm2386 0l1586 0 0 -1528 -1586 0 0 1528zm2386 0l907 0 -9 -1528 -898 0 0 1528zm-1292 -22718l811 0c-2,-383 -2,-633 -2,-744 0,-111 1,-362 2,-750l-811 -3 0 1498zm-8375 5l868 -1 0 -1527 -868 -3 0 1530zm3104 -28l0 -1492 -1435 -5 0 1497 1435 0zm2235 0l0 -1485 -1435 -5 0 1489 1435 0zm2235 0l0 -1477 -1435 -5 0 1482 1435 0zm4342 35646l-995 0 0 1528 995 0 0 -1528zm-1795 0l-1586 0 0 1528 1586 0 0 -1528zm-2386 0l-1586 0 0 1528 1586 0 0 -1528zm-2386 0l-1586 0 0 1528 1586 0 0 -1528zm-2386 0l-1586 0 0 1528 1586 0 0 -1528zm-2386 0l-1586 0 0 1528 1586 0 0 -1528zm-2386 0l-981 0 0 1528 981 0 0 -1528zm-40327 6393l-1412 0 0 1346 1412 0 0 -1346z"/></g><text x="0" y="60015" fill="#000000" font-size="5px" font-weight="bold" font-family="'Helvetica Neue', Helvetica, Arial-Unicode, Arial, Sans-serif">Created by Olena Panasovska</text><text x="0" y="60020" fill="#000000" font-size="5px" font-weight="bold" font-family="'Helvetica Neue', Helvetica, Arial-Unicode, Arial, Sans-serif">from the Noun Project</text></svg>