<svg id="Layer_1" enable-background="new 0 0 511.54 511.54" height="512" viewBox="0 0 511.54 511.54" width="512" xmlns="http://www.w3.org/2000/svg"><g><g><path d="m84.138 414.02h-15v97.52h213.259v-15h-198.259z"/><path d="m427.397 114.49h15v234.53h-15z"/><path d="m84.138 15h343.259v84.49h15v-99.49h-373.259v399.02h15z"/><path d="m304.896 371.525v140.012h13.883l123.623-123.623v-16.389zm15 117.683v-102.683h102.683z"/><path d="m209.612 131.757 21.867-19.124-9.875-11.291-11.992 10.487v-12.341h-98.996v98.996h98.996zm-83.996 51.727v-68.996h68.996v10.46l-32.638 28.544-15.094-18.131-11.528 9.597 24.928 29.943 34.333-30.026v38.608h-68.997z"/><path d="m110.616 337.937h98.996v-98.996h-98.996zm15-83.996h68.996v68.996h-68.996z"/><path d="m250.768 99.488h150.494v15h-150.494z"/><path d="m250.768 139.488h150.494v15h-150.494z"/><path d="m250.768 183.484h150.494v15h-150.494z"/><path d="m250.768 238.941h150.494v15h-150.494z"/><path d="m250.768 278.941h150.494v15h-150.494z"/><path d="m250.768 322.937h150.494v15h-150.494z"/></g><g><path d="m401.262 57.27h-15v-15h15zm-45 0h-15v-15h15zm-45 0h-15v-15h15z"/></g><g><g><path d="m110.546 42.27h15v15h-15z"/></g><g><path d="m110.546 454.27h15v15h-15z"/></g></g></g></svg>