<svg height="512pt" viewBox="-92 0 512 512" width="512pt" xmlns="http://www.w3.org/2000/svg"><path d="m310.039062 43.472656c-13.042968 0-84.136718 0-95.972656 0-3.671875-24.566406-24.917968-43.472656-50.496094-43.472656-25.574218 0-46.820312 18.90625-50.496093 43.472656h-95.96875c-9.433594 0-17.105469 7.671875-17.105469 17.105469v434.316406c0 9.433594 7.671875 17.105469 17.105469 17.105469h292.933593c9.433594 0 17.105469-7.671875 17.105469-17.105469v-434.316406c0-9.433594-7.671875-17.105469-17.105469-17.105469zm-214.484374 15.179688h24.546874c4.1875 0 7.589844-3.398438 7.589844-7.589844 0-2.601562.273438-5.140625.808594-7.589844 3.492188-16.15625 17.886719-28.289062 35.070312-28.289062 19.835938 0 35.882813 16.140625 35.882813 35.878906 0 4.191406 3.398437 7.589844 7.589844 7.589844h24.542969v40.355468h-136.03125c0-12.046874 0-21.902343 0-40.355468zm216.40625 436.242187c0 1.0625-.859376 1.921875-1.921876 1.921875h-292.933593c-1.0625 0-1.921875-.859375-1.921875-1.921875v-434.316406c0-1.0625.859375-1.925781 1.921875-1.925781h63.269531v16.527344h-37.136719c-6.355469 0-11.539062 5.175781-11.539062 11.539062v136.570312c0 4.199219 3.402343 7.589844 7.59375 7.589844 4.199219 0 7.589843-3.390625 7.589843-7.589844v-132.925781h33.492188v9.484375c0 7.90625 6.4375 14.339844 14.351562 14.339844h137.691407c7.914062 0 14.351562-6.433594 14.351562-14.339844v-9.484375h33.492188v374.746094h-233.378907v-211.457031c0-4.191406-3.390624-7.589844-7.589843-7.589844-4.191407 0-7.59375 3.398438-7.59375 7.589844v215.097656c0 6.367188 5.183593 11.539062 11.539062 11.539062h240.667969c6.355469 0 11.535156-5.171874 11.535156-11.539062v-382.03125c0-6.363281-5.179687-11.539062-11.535156-11.539062h-37.136719v-16.527344h63.269531c1.0625 0 1.921876.863281 1.921876 1.925781zm0 0"/><path d="m69.097656 262.910156h113.410156c4.195313 0 7.59375-3.398437 7.59375-7.589844 0-4.195312-3.398437-7.59375-7.59375-7.59375h-113.410156c-4.191406 0-7.589844 3.398438-7.589844 7.59375 0 4.191407 3.398438 7.589844 7.589844 7.589844zm0 0"/><path d="m69.097656 293.75h113.410156c4.195313 0 7.59375-3.398438 7.59375-7.589844 0-4.195312-3.398437-7.589844-7.59375-7.589844h-113.410156c-4.191406 0-7.589844 3.394532-7.589844 7.589844 0 4.191406 3.398438 7.589844 7.589844 7.589844zm0 0"/><path d="m203.078125 258.988281c-3.347656 2.527344-4.011719 7.289063-1.484375 10.632813l13.320312 17.640625c3.027344 4.007812 9.015626 4 12.058594.070312l37.074219-47.871093c2.566406-3.3125 1.960937-8.082032-1.355469-10.648438-3.3125-2.566406-8.082031-1.964844-10.648437 1.355469l-30.996094 40.019531-7.335937-9.714844c-2.523438-3.34375-7.285157-4.007812-10.632813-1.484375zm0 0"/><path d="m69.097656 336.457031h113.410156c4.195313 0 7.59375-3.394531 7.59375-7.589843 0-4.191407-3.398437-7.589844-7.59375-7.589844h-113.410156c-4.191406 0-7.589844 3.398437-7.589844 7.589844 0 4.195312 3.398438 7.589843 7.589844 7.589843zm0 0"/><path d="m69.097656 367.296875h113.410156c4.195313 0 7.59375-3.394531 7.59375-7.589844 0-4.191406-3.398437-7.589843-7.59375-7.589843h-113.410156c-4.191406 0-7.589844 3.398437-7.589844 7.589843 0 4.195313 3.398438 7.589844 7.589844 7.589844zm0 0"/><path d="m262.691406 302.359375c-3.3125-2.566406-8.082031-1.960937-10.648437 1.355469l-30.996094 40.023437-7.335937-9.714843c-2.523438-3.347657-7.285157-4.011719-10.632813-1.484376-3.34375 2.527344-4.007813 7.285157-1.484375 10.632813l13.320312 17.636719c3.027344 4.011718 9.019532 4 12.058594.074218l37.074219-47.875c2.566406-3.3125 1.960937-8.078124-1.355469-10.648437zm0 0"/><path d="m69.097656 410.007812h113.410156c4.195313 0 7.59375-3.398437 7.59375-7.59375 0-4.191406-3.398437-7.589843-7.59375-7.589843h-113.410156c-4.191406 0-7.589844 3.398437-7.589844 7.589843 0 4.195313 3.398438 7.59375 7.589844 7.59375zm0 0"/><path d="m69.097656 440.847656h113.410156c4.195313 0 7.59375-3.398437 7.59375-7.589844 0-4.195312-3.398437-7.59375-7.59375-7.59375h-113.410156c-4.191406 0-7.589844 3.398438-7.589844 7.59375 0 4.191407 3.398438 7.589844 7.589844 7.589844zm0 0"/><path d="m262.691406 375.910156c-3.3125-2.570312-8.082031-1.960937-10.648437 1.351563l-30.996094 40.027343-7.335937-9.71875c-2.523438-3.34375-7.285157-4.007812-10.632813-1.484374-3.34375 2.527343-4.007813 7.289062-1.484375 10.632812l13.320312 17.636719c3.007813 3.984375 8.992188 4.03125 12.058594.074219l37.074219-47.871094c2.566406-3.316406 1.960937-8.082032-1.355469-10.648438zm0 0"/><path d="m126.832031 201.386719h16.121094v16.113281c0 11.375 9.253906 20.617188 20.617187 20.617188 11.367188 0 20.617188-9.242188 20.617188-20.617188v-16.113281h16.125c11.367188 0 20.617188-9.253907 20.617188-20.617188 0-11.378906-9.25-20.617187-20.617188-20.617187h-16.125v-16.125c0-11.367188-9.25-20.617188-20.617188-20.617188-11.363281 0-20.617187 9.25-20.617187 20.617188v16.125h-16.121094c-11.367187 0-20.617187 9.238281-20.617187 20.617187 0 11.363281 9.25 20.617188 20.617187 20.617188zm0-26.054688h23.714844c4.1875 0 7.589844-3.398437 7.589844-7.589843v-23.714844c0-2.996094 2.4375-5.433594 5.433593-5.433594 2.996094 0 5.4375 2.4375 5.4375 5.433594v23.714844c0 4.191406 3.398438 7.589843 7.589844 7.589843h23.714844c2.996094 0 5.433594 2.441407 5.433594 5.4375 0 2.996094-2.4375 5.433594-5.433594 5.433594h-23.714844c-4.191406 0-7.589844 3.402344-7.589844 7.589844v23.707031c0 2.996094-2.441406 5.433594-5.4375 5.433594-2.996093 0-5.433593-2.4375-5.433593-5.433594v-23.707031c0-4.1875-3.402344-7.589844-7.589844-7.589844h-23.714844c-2.996093 0-5.4375-2.4375-5.4375-5.433594 0-2.996093 2.441407-5.4375 5.4375-5.4375zm0 0"/></svg>