<svg width="25" height="25" viewBox="0 0 25 25" fill="none" xmlns="http://www.w3.org/2000/svg">
<g clip-path="url(#clip0)">
<path d="M24.6337 24.2676H23.0356C23.3324 23.6091 23.5467 22.9444 23.6735 22.2848C23.7117 22.0862 23.5817 21.8942 23.3831 21.8561C23.1844 21.8181 22.9925 21.9479 22.9543 22.1465C22.819 22.85 22.5744 23.5625 22.2262 24.2675H20.666V23.7037C20.666 23.5014 20.5021 23.3375 20.2998 23.3375C20.0975 23.3375 19.9336 23.5014 19.9336 23.7037V24.2675H18.3734C17.8276 23.1626 17.5396 22.0477 17.5168 20.9502C17.5045 20.3553 17.5705 19.7553 17.7127 19.1546H22.8867C23.0134 19.6896 23.0797 20.2239 23.0836 20.7542C23.0852 20.9555 23.2488 21.1176 23.4498 21.1176H23.4526C23.6549 21.1161 23.8176 20.9509 23.8161 20.7487C23.812 20.2038 23.7485 19.6562 23.6276 19.1088C23.7403 19.0463 23.8166 18.9263 23.8166 18.7884C23.8166 18.5861 23.6527 18.4222 23.4504 18.4222H23.4455C23.3108 17.9876 23.1403 17.5541 22.9331 17.1232C22.7959 16.8379 22.514 16.6459 22.2 16.6165V16.0449C22.2 15.6019 21.8432 15.2411 21.4019 15.2336V1.85297C21.4019 0.831248 20.5707 4.8828e-05 19.549 4.8828e-05L5.81928 0C4.79755 0 3.9663 0.8312 3.9663 1.85293V2.61855H2.81479C2.35649 2.61855 1.98369 2.9914 1.98369 3.44965V4.53837C1.87309 4.60141 1.79834 4.72016 1.79834 4.85658C1.79834 4.99301 1.87304 5.11176 1.98369 5.17479V14.277C1.34975 15.1978 0.978025 16.3125 0.978025 17.5124V18.5216H0.738524C0.536229 18.5216 0.372314 18.6856 0.372314 18.8878C0.372314 19.0901 0.536229 19.2541 0.738524 19.2541H0.978025V21.2287C0.978025 21.431 1.14194 21.5949 1.34424 21.5949C1.54653 21.5949 1.71045 21.431 1.71045 21.2287V19.2541H11.6853V24.2676H8.51004V22.2495C8.51004 21.8884 8.21624 21.5946 7.85521 21.5946H5.54061C5.17953 21.5946 4.88578 21.8884 4.88578 22.2495V24.2676H1.71045V22.693C1.71045 22.4907 1.54653 22.3268 1.34424 22.3268C1.14194 22.3268 0.978025 22.4907 0.978025 22.693V24.2676H0.36621C0.163916 24.2676 0 24.4315 0 24.6338C0 24.8361 0.163916 25 0.36621 25H24.6337C24.836 25 25 24.8361 25 24.6338C25 24.4315 24.836 24.2676 24.6337 24.2676ZM5.61815 22.327H7.77762V24.2675H5.61815V22.327ZM19.2871 15.2329H19.2115C18.7637 15.2329 18.3994 15.5972 18.3994 16.045V16.6166C18.0855 16.646 17.8035 16.838 17.6663 17.1233C17.4586 17.5554 17.2884 17.9885 17.1542 18.4223H17.1491C16.9468 18.4223 16.7829 18.5862 16.7829 18.7885C16.7829 18.9266 16.8593 19.0467 16.9722 19.1091C16.9174 19.3583 16.8748 19.6076 16.8442 19.857H15.437C15.4366 18.5606 15.4369 9.85159 15.437 7.12787C15.5476 7.06483 15.6223 6.94608 15.6223 6.8097C15.6223 6.67333 15.5476 6.55453 15.437 6.49154V5.40282C15.437 4.94452 15.0641 4.57172 14.6058 4.57172H13.5139V3.60541C13.5139 3.2413 13.8101 2.94506 14.1742 2.94506H18.6267C18.9908 2.94506 19.2871 3.2413 19.2871 3.60541V15.2329ZM11.5907 7.17591H14.7045V9.78396H11.5907V7.17591ZM11.5907 10.5164H14.7045V13.1395H11.5907V10.5164ZM14.6057 5.30409C14.6602 5.30409 14.7045 5.34838 14.7045 5.40277V6.44344H11.5907V5.40277C11.5907 5.34838 11.6349 5.30409 11.6893 5.30409H14.6057ZM10.8582 9.71565H6.57499V9.21336H10.8582V9.71565ZM5.82987 6.42914H5.00507C4.80277 6.42914 4.63886 6.59305 4.63886 6.79535C4.63886 6.99764 4.80277 7.16156 5.00507 7.16156H5.82987V9.7847H2.71606V7.16156H3.54086C3.74316 7.16156 3.90707 6.99764 3.90707 6.79535C3.90707 6.59305 3.74316 6.42914 3.54086 6.42914H2.71606V5.22279H5.82987V6.42914ZM5.82987 10.5171V11.8583C4.62895 12.0419 3.55004 12.6006 2.71606 13.4103V10.5171H5.82987ZM6.56229 10.4481H10.8519C10.8519 10.5223 10.8503 13.8009 10.8583 13.5914C9.81458 12.4846 8.33563 11.7926 6.69789 11.7926C6.65258 11.7926 6.60741 11.7932 6.56234 11.7943V10.4481H6.56229ZM11.5907 13.8719H14.7045V17.2578H12.4117C12.3683 16.2711 12.074 15.3484 11.5907 14.5524V13.8719ZM12.6572 19.254C12.8595 19.254 13.0234 19.0901 13.0234 18.8878C13.0234 18.6855 12.8595 18.5216 12.6572 18.5216H12.4177V17.9902H14.7045V19.8569H12.4177V19.254H12.6572V19.254ZM12.4177 20.5894H16.789C16.7842 20.7602 16.7851 20.9309 16.7917 21.1016H12.4178V20.5894H12.4177ZM16.8545 21.834C16.9627 22.6469 17.1991 23.4588 17.564 24.2676H15.4369V21.834H16.8545ZM22.2731 17.4406C22.43 17.767 22.5638 18.0944 22.6754 18.4223H17.9244C18.036 18.0945 18.1694 17.7671 18.3264 17.4407C18.3545 17.3823 18.416 17.3446 18.4832 17.3446H22.1163C22.1835 17.3446 22.245 17.3823 22.2731 17.4406ZM21.4676 16.045V16.6122H19.1318V16.045C19.1318 16.0011 19.1675 15.9653 19.2115 15.9653H21.388C21.4319 15.9653 21.4676 16.001 21.4676 16.045ZM4.69872 1.85293C4.69872 1.2351 5.20141 0.73242 5.81928 0.73242L19.549 0.732469C20.1669 0.732469 20.6695 1.23515 20.6695 1.85297V15.2329H20.0195V3.60541C20.0195 2.8374 19.3947 2.21264 18.6267 2.21264H14.1742C13.4062 2.21264 12.7815 2.83745 12.7815 3.60541V4.57167H11.6895C11.2312 4.57167 10.8584 4.94452 10.8584 5.40277V6.49149C10.7478 6.55453 10.673 6.67328 10.673 6.8097C10.673 6.94613 10.7477 7.06488 10.8584 7.12791V8.48099H6.57513C6.5682 5.89633 6.58568 9.68479 6.56239 5.17479C6.67298 5.11176 6.74774 4.99301 6.74774 4.85658C6.74774 4.72016 6.67303 4.60141 6.56239 4.53837V3.44965C6.56239 2.99135 6.18954 2.61855 5.73129 2.61855H4.69872V1.85293ZM2.81479 3.35097H5.73119C5.78558 3.35097 5.82987 3.39526 5.82987 3.44965V4.49032H2.71606V3.44965C2.71606 3.39526 2.76039 3.35097 2.81479 3.35097ZM1.71045 18.5216V17.5124C1.71045 14.7623 3.94779 12.5249 6.69794 12.5249C9.44798 12.5249 11.6854 14.7623 11.6854 17.5124V18.5216H1.71045ZM12.4177 21.834H14.7045V24.2676H12.4177V21.834Z" fill="#F7F7F7"/>
<path d="M6.69792 14.3308C6.3511 14.3308 6.02737 14.5811 5.78635 15.0356C5.61243 15.3636 5.50012 15.7664 5.50012 16.0619C5.50012 16.7224 6.03748 17.2597 6.69792 17.2597C7.35842 17.2597 7.89578 16.7224 7.89578 16.0619C7.89578 15.7664 7.78342 15.3636 7.60955 15.0356C7.36853 14.5811 7.0448 14.3308 6.69792 14.3308ZM6.69792 16.5272C6.44128 16.5272 6.23254 16.3185 6.23254 16.0618C6.23254 15.6641 6.55295 15.0859 6.69636 15.0631C6.84294 15.0858 7.16335 15.6641 7.16335 16.0618C7.1634 16.3185 6.95457 16.5272 6.69792 16.5272Z" fill="#F7F7F7"/>
</g>
<defs>
<clipPath id="clip0">
<rect width="25" height="25" fill="white"/>
</clipPath>
</defs>
</svg>
